<?xml version="1.0" encoding="utf-8"?>
<!-- Generator: Adobe Illustrator 24.1.0, SVG Export Plug-In . SVG Version: 6.00 Build 0)  -->
<svg version="1.1" id="Group_2030" xmlns="http://www.w3.org/2000/svg" xmlns:xlink="http://www.w3.org/1999/xlink" x="0px" y="0px"
	 viewBox="0 0 633.9 558.1" style="enable-background:new 0 0 633.9 558.1;" xml:space="preserve">
<style type="text/css">
	.st0{clip-path:url(#SVGID_2_);}
	.st1{fill-rule:evenodd;clip-rule:evenodd;fill:#FFFFFF;}
	.st2{fill:#FFFFFF;}
	.st3{font-family:'AmaticSC-Bold';}
	.st4{font-size:77.1421px;}
</style>
<g>
	<g>
		<g>
			<defs>
				<rect id="SVGID_1_" x="11.5" y="4.6" width="610.9" height="548.9"/>
			</defs>
			<clipPath id="SVGID_2_">
				<use xlink:href="#SVGID_1_"  style="overflow:visible;"/>
			</clipPath>
			<g id="Group_148_1_" transform="translate(0 0)" class="st0">
				<g id="Group_55_1_" transform="translate(113.455 1.687)">
					<path id="Path_335_1_" class="st1" d="M373.5,10c17.1,10.4,25.4,27.5,18.3,41.6C372.6,46.6,365.2,29.1,373.5,10z"/>
				</g>
				<g id="Group_56_1_" transform="translate(106.895 10.302)">
					<path id="Path_336_1_" class="st1" d="M393.1,46.4c-18.7-8.3-33.3-11.7-43.7-7.1C364.4,51.8,379,54.3,393.1,46.4z"/>
				</g>
				<g id="Group_57_1_" transform="translate(132.891 23.975)">
					<path id="Path_337_1_" class="st1" d="M444.1,80.4c10.8,16.6,10.8,35.8-1.7,45.4C427.4,113.3,427.8,94.2,444.1,80.4z"/>
				</g>
				<g id="Group_58_1_" transform="translate(125.248 29.14)">
					<path id="Path_338_1_" class="st1" d="M443.6,121.7c-13.3-15.4-25.4-24.6-36.2-25C415.3,114.2,427.4,122.6,443.6,121.7z"/>
				</g>
				<g id="Group_59_1_" transform="translate(116.471 17.848)">
					<path id="Path_339_1_" class="st1" d="M379.7,65.6C391.3,81.9,409.2,88.9,423,81C416.3,62.7,398.4,56.1,379.7,65.6z"/>
				</g>
				<g id="Group_60_1_" transform="translate(124.923 11.08)">
					<path id="Path_340_1_" class="st1" d="M417.6,82.1c-9.6-17.9-13.7-32-9.6-42.4C421.4,53.8,424.3,67.6,417.6,82.1z"/>
				</g>
				<g id="Group_61_1_" transform="translate(139.607 53.361)">
					<path id="Path_341_1_" class="st1" d="M476.1,173.3c3.3,19.6-4.6,37-20.4,40.8C447.8,196.6,456.1,179.6,476.1,173.3z"/>
				</g>
				<g id="Group_62_1_" transform="translate(133.478 53.748)">
					<path id="Path_342_1_" class="st1" d="M455.9,212c-5.8-19.6-12.5-32.5-22.5-37.5C433.4,194.1,440.9,206.2,455.9,212z"/>
				</g>
				<g id="Group_63_1_" transform="translate(129.648 41.49)">
					<path id="Path_343_1_" class="st1" d="M421.3,136.2c5.4,19.1,19.6,32,35,29.1C456.7,146.2,442.1,133.7,421.3,136.2z"/>
				</g>
				<g id="Group_64_1_" transform="translate(138.96 37.232)">
					<path id="Path_344_1_" class="st1" d="M452,165.6c-2.5-20.4-1.7-35,5.8-43.3C465.3,140.2,463.7,154.4,452,165.6z"/>
				</g>
				<g id="Group_65_1_" transform="translate(132.532 82.959)">
					<path id="Path_345_1_" class="st1" d="M467.1,267.7c-6.2,18.7-21.2,30.8-36.6,27C431.3,275.2,446.7,264,467.1,267.7z"/>
				</g>
				<g id="Group_66_1_" transform="translate(129.272 78.162)">
					<path id="Path_346_1_" class="st1" d="M428.9,295.4c4.2-20,3.7-35-2.9-43.7C417.2,268.8,418.5,283.4,428.9,295.4z"/>
				</g>
				<g id="Group_67_1_" transform="translate(132.189 65.817)">
					<path id="Path_347_1_" class="st1" d="M430.6,212.7c-4.2,19.1,2.5,37,17.9,41.6C457.7,237.7,450.2,220.2,430.6,212.7z"/>
				</g>
				<g id="Group_68_1_" transform="translate(138.288 66.866)">
					<path id="Path_348_1_" class="st1" d="M448.6,252.2c7.1-19.1,14.6-32,25-35.8C472.4,235.6,464,247.2,448.6,252.2z"/>
				</g>
				<g id="Group_69_1_" transform="translate(114.34 107.38)">
					<path id="Path_349_1_" class="st1" d="M417.9,351.6c-13.7,14.1-32.5,18.3-44.9,8.3C382.1,342.8,401.2,339.1,417.9,351.6z"/>
				</g>
				<g id="Group_70_1_" transform="translate(113.464 100.063)">
					<path id="Path_350_1_" class="st1" d="M371.4,361.3c12.5-16.2,18.7-29.5,16.6-40.4C372.7,332.6,367.3,345.9,371.4,361.3z"/>
				</g>
				<g id="Group_71_1_" transform="translate(122.396 89.734)">
					<path id="Path_351_1_" class="st1" d="M408.8,288.3c-12.5,15.8-14.6,34.5-2.5,45.4C422.1,322.4,423.4,303.7,408.8,288.3z"/>
				</g>
				<g id="Group_72_1_" transform="translate(125.772 95.772)">
					<path id="Path_352_1_" class="st1" d="M409.1,329c15-14.1,27.5-22.1,38.3-21.6C437.8,324.5,424.9,331.5,409.1,329z"/>
				</g>
				<g id="Group_73_1_" transform="translate(87.044 123.537)">
					<path id="Path_353_1_" class="st1" d="M331.2,413.1c-18.7,7.1-37.5,2.9-44.5-11.2C302.5,390.2,321.2,394.7,331.2,413.1z"/>
				</g>
				<g id="Group_74_1_" transform="translate(87.211 116.441)">
					<path id="Path_354_1_" class="st1" d="M287.2,402.3c18.3-9.6,29.5-18.7,32-29.5C300.5,376.9,289.7,386.9,287.2,402.3z"/>
				</g>
				<g id="Group_75_1_" transform="translate(101.851 108.017)">
					<path id="Path_355_1_" class="st1" d="M356.8,346.1c-17.5,9.2-27.5,25.4-21.6,40.4C354.7,382.7,363.4,366.1,356.8,346.1z"/>
				</g>
				<g id="Group_76_1_" transform="translate(103.49 117.009)">
					<path id="Path_356_1_" class="st1" d="M338.6,381.2c19.6-6.7,34.1-8.7,44.1-3.3C366.9,388.7,352,389.9,338.6,381.2z"/>
				</g>
				<g id="Group_77_1_" transform="translate(113.455 1.687)">
					<path id="Path_357_1_" class="st1" d="M373.5,10c17.1,10.4,25.4,27.5,18.3,41.6C372.6,46.6,365.2,29.1,373.5,10z"/>
				</g>
				<g id="Group_78_1_" transform="translate(106.895 10.302)">
					<path id="Path_358_1_" class="st1" d="M393.1,46.4c-18.7-8.3-33.3-11.7-43.7-7.1C364.4,51.8,379,54.3,393.1,46.4z"/>
				</g>
				<g id="Group_79_1_" transform="translate(132.891 23.975)">
					<path id="Path_359_1_" class="st1" d="M444.1,80.4c10.8,16.6,10.8,35.8-1.7,45.4C427.4,113.3,427.8,94.2,444.1,80.4z"/>
				</g>
				<g id="Group_80_1_" transform="translate(125.248 29.14)">
					<path id="Path_360_1_" class="st1" d="M443.6,121.7c-13.3-15.4-25.4-24.6-36.2-25C415.3,114.2,427.4,122.6,443.6,121.7z"/>
				</g>
				<g id="Group_81_1_" transform="translate(116.471 17.848)">
					<path id="Path_361_1_" class="st1" d="M379.7,65.6C391.3,81.9,409.2,88.9,423,81C416.3,62.7,398.4,56.1,379.7,65.6z"/>
				</g>
				<g id="Group_82_1_" transform="translate(124.923 11.08)">
					<path id="Path_362_1_" class="st1" d="M417.6,82.1c-9.6-17.9-13.7-32-9.6-42.4C421.4,53.8,424.3,67.6,417.6,82.1z"/>
				</g>
				<g id="Group_83_1_" transform="translate(139.607 53.361)">
					<path id="Path_363_1_" class="st1" d="M476.1,173.3c3.3,19.6-4.6,37-20.4,40.8C447.8,196.6,456.1,179.6,476.1,173.3z"/>
				</g>
				<g id="Group_84_1_" transform="translate(133.478 53.748)">
					<path id="Path_364_1_" class="st1" d="M455.9,212c-5.8-19.6-12.5-32.5-22.5-37.5C433.4,194.1,440.9,206.2,455.9,212z"/>
				</g>
				<g id="Group_85_1_" transform="translate(129.648 41.49)">
					<path id="Path_365_1_" class="st1" d="M421.3,136.2c5.4,19.1,19.6,32,35,29.1C456.7,146.2,442.1,133.7,421.3,136.2z"/>
				</g>
				<g id="Group_86_1_" transform="translate(138.96 37.232)">
					<path id="Path_366_1_" class="st1" d="M452,165.6c-2.5-20.4-1.7-35,5.8-43.3C465.3,140.2,463.7,154.4,452,165.6z"/>
				</g>
				<g id="Group_87_1_" transform="translate(132.532 82.959)">
					<path id="Path_367_1_" class="st1" d="M467.1,267.7c-6.2,18.7-21.2,30.8-36.6,27C431.3,275.2,446.7,264,467.1,267.7z"/>
				</g>
				<g id="Group_88_1_" transform="translate(129.272 78.162)">
					<path id="Path_368_1_" class="st1" d="M428.9,295.4c4.2-20,3.7-35-2.9-43.7C417.2,268.8,418.5,283.4,428.9,295.4z"/>
				</g>
				<g id="Group_89_1_" transform="translate(132.189 65.817)">
					<path id="Path_369_1_" class="st1" d="M430.6,212.7c-4.2,19.1,2.5,37,17.9,41.6C457.7,237.7,450.2,220.2,430.6,212.7z"/>
				</g>
				<g id="Group_90_1_" transform="translate(138.288 66.866)">
					<path id="Path_370_1_" class="st1" d="M448.6,252.2c7.1-19.1,14.6-32,25-35.8C472.4,235.6,464,247.2,448.6,252.2z"/>
				</g>
				<g id="Group_91_1_" transform="translate(114.34 107.38)">
					<path id="Path_371_1_" class="st1" d="M417.9,351.6c-13.7,14.1-32.5,18.3-44.9,8.3C382.1,342.8,401.2,339.1,417.9,351.6z"/>
				</g>
				<g id="Group_92_1_" transform="translate(113.464 100.063)">
					<path id="Path_372_1_" class="st1" d="M371.4,361.3c12.5-16.2,18.7-29.5,16.6-40.4C372.7,332.6,367.3,345.9,371.4,361.3z"/>
				</g>
				<g id="Group_93_1_" transform="translate(122.396 89.734)">
					<path id="Path_373_1_" class="st1" d="M408.8,288.3c-12.5,15.8-14.6,34.5-2.5,45.4C422.1,322.4,423.4,303.7,408.8,288.3z"/>
				</g>
				<g id="Group_94_1_" transform="translate(125.772 95.772)">
					<path id="Path_374_1_" class="st1" d="M409.1,329c15-14.1,27.5-22.1,38.3-21.6C437.8,324.5,424.9,331.5,409.1,329z"/>
				</g>
				<g id="Group_95_1_" transform="translate(87.044 123.537)">
					<path id="Path_375_1_" class="st1" d="M331.2,413.1c-18.7,7.1-37.5,2.9-44.5-11.2C302.5,390.2,321.2,394.7,331.2,413.1z"/>
				</g>
				<g id="Group_96_1_" transform="translate(87.211 116.441)">
					<path id="Path_376_1_" class="st1" d="M287.2,402.3c18.3-9.6,29.5-18.7,32-29.5C300.5,376.9,289.7,386.9,287.2,402.3z"/>
				</g>
				<g id="Group_97_1_" transform="translate(101.851 108.017)">
					<path id="Path_377_1_" class="st1" d="M356.8,346.1c-17.5,9.2-27.5,25.4-21.6,40.4C354.7,382.7,363.4,366.1,356.8,346.1z"/>
				</g>
				<g id="Group_98_1_" transform="translate(103.49 117.009)">
					<path id="Path_378_1_" class="st1" d="M338.6,381.2c19.6-6.7,34.1-8.7,44.1-3.3C366.9,388.7,352,389.9,338.6,381.2z"/>
				</g>
				<g id="Group_99_1_" transform="translate(27.809 1.406)">
					<path id="Path_379_1_" class="st1" d="M120.2,9.1c-17.1,10.4-25.4,27.5-18.3,41.6C121,45.7,128.5,28.2,120.2,9.1z"/>
				</g>
				<g id="Group_100_1_" transform="translate(29.68 10.088)">
					<path id="Path_380_1_" class="st1" d="M105.3,45.7C124.5,37.4,139,34.5,149,39C134,51.1,119.5,53.2,105.3,45.7z"/>
				</g>
				<g id="Group_101_1_" transform="translate(9.164 23.561)">
					<path id="Path_381_1_" class="st1" d="M48.8,79.1c-11.2,16.6-11.7,35.8,0.8,45.8C65,112,64.6,93.3,48.8,79.1z"/>
				</g>
				<g id="Group_102_1_" transform="translate(12.929 28.808)">
					<path id="Path_382_1_" class="st1" d="M52.4,120.3C66.1,104.9,77.8,96.1,89,95.7C80.7,113.2,68.6,121.1,52.4,120.3z"/>
				</g>
				<g id="Group_103_1_" transform="translate(20.155 17.565)">
					<path id="Path_383_1_" class="st1" d="M118.5,64.7c-11.7,16.2-29.5,23.3-43.3,15C81.5,61.4,99.8,55.2,118.5,64.7z"/>
				</g>
				<g id="Group_104_1_" transform="translate(18.578 10.742)">
					<path id="Path_384_1_" class="st1" d="M73.6,81c9.6-17.9,13.7-32,10-42.4C70.2,52.3,66.9,66.9,73.6,81z"/>
				</g>
				<g id="Group_105_1_" transform="translate(1.358 52.919)">
					<path id="Path_385_1_" class="st1" d="M16.6,171.9c-3.3,19.6,4.2,37,20,40.8C44.9,195.2,36.6,178.2,16.6,171.9z"/>
				</g>
				<g id="Group_106_1_" transform="translate(7.835 53.361)">
					<path id="Path_386_1_" class="st1" d="M36.3,210.8c5.8-19.6,12.9-32.5,22.9-37C58.7,192.5,51.2,205,36.3,210.8z"/>
				</g>
				<g id="Group_107_1_" transform="translate(8.72 41.122)">
					<path id="Path_387_1_" class="st1" d="M74.4,135.1c-5.4,19.1-19.6,32-35.4,29.1C38.7,144.6,53.6,132.6,74.4,135.1z"/>
				</g>
				<g id="Group_108_1_" transform="translate(5.126 36.79)">
					<path id="Path_388_1_" class="st1" d="M38.1,164.2c2.5-20,1.2-35-5.8-43.3C24.8,138.8,26.5,153,38.1,164.2z"/>
				</g>
				<g id="Group_109_1_" transform="translate(5.205 82.536)">
					<path id="Path_389_1_" class="st1" d="M28,266.4c6.2,18.7,21.2,30.8,36.6,27.5C64.2,274.3,48.8,262.6,28,266.4z"/>
				</g>
				<g id="Group_110_1_" transform="translate(14.571 77.775)">
					<path id="Path_390_1_" class="st1" d="M60.1,294.2c-4.2-20-3.3-35,3.3-43.7C71.7,268,70.9,282.1,60.1,294.2z"/>
				</g>
				<g id="Group_111_1_" transform="translate(8.938 65.43)">
					<path id="Path_391_1_" class="st1" d="M61.8,211.5c4.2,19.6-2.5,37-17.9,41.6C34.3,236,41.8,219,61.8,211.5z"/>
				</g>
				<g id="Group_112_1_" transform="translate(2.436 66.424)">
					<path id="Path_392_1_" class="st1" d="M43.8,250.8c-6.7-19.1-14.1-32-24.6-36.2C20.5,233.8,28.8,245.8,43.8,250.8z"/>
				</g>
				<g id="Group_113_1_" transform="translate(21.263 107.09)">
					<path id="Path_393_1_" class="st1" d="M78.7,350.7c13.7,14.1,32.5,18.7,44.9,8.7C114.5,341.9,95.8,338.2,78.7,350.7z"/>
				</g>
				<g id="Group_114_1_" transform="translate(28.596 99.76)">
					<path id="Path_394_1_" class="st1" d="M118.5,360.8c-12.5-16.6-18.7-30-16.2-40.8C117.7,332.1,123.1,345.4,118.5,360.8z"/>
				</g>
				<g id="Group_115_1_" transform="translate(19.172 89.402)">
					<path id="Path_395_1_" class="st1" d="M82.5,287.3c12.1,15.8,13.7,35,2.1,45.4C68.8,321.4,67.9,302.2,82.5,287.3z"/>
				</g>
				<g id="Group_116_1_" transform="translate(11.517 95.387)">
					<path id="Path_396_1_" class="st1" d="M86.2,328.2c-15-14.6-27.5-22.5-38.3-21.6C57.5,322.8,70,330.3,86.2,328.2z"/>
				</g>
				<g id="Group_117_1_" transform="translate(49.364 123.211)">
					<path id="Path_397_1_" class="st1" d="M167.5,411.6c18.7,7.1,37.9,3.3,44.5-10.8C196.3,389.1,177.9,393.7,167.5,411.6z"/>
				</g>
				<g id="Group_118_1_" transform="translate(52.243 116.082)">
					<path id="Path_398_1_" class="st1" d="M208.7,401.6c-18.3-9.6-29.5-19.1-32-30C195.8,375.8,206.2,385.7,208.7,401.6z"/>
				</g>
				<g id="Group_119_1_" transform="translate(38.394 107.768)">
					<path id="Path_399_1_" class="st1" d="M134.9,345.3c17.9,9.2,27.5,25.8,21.6,40.4C137,381.9,128.3,365.3,134.9,345.3z"/>
				</g>
				<g id="Group_120_1_" transform="translate(32.337 116.759)">
					<path id="Path_400_1_" class="st1" d="M157.4,380.4c-19.1-6.7-34.1-8.7-43.7-3.7C129.5,387.9,144.1,389.1,157.4,380.4z"/>
				</g>
				<g id="Group_121_1_" transform="translate(27.809 1.406)">
					<path id="Path_401_1_" class="st1" d="M120.2,9.1c-17.1,10.4-25.4,27.5-18.3,41.6C121,45.7,128.5,28.2,120.2,9.1z"/>
				</g>
				<g id="Group_122_1_" transform="translate(29.68 10.088)">
					<path id="Path_402_1_" class="st1" d="M105.3,45.7C124.5,37.4,139,34.5,149,39C134,51.1,119.5,53.2,105.3,45.7z"/>
				</g>
				<g id="Group_123_1_" transform="translate(9.164 23.561)">
					<path id="Path_403_1_" class="st1" d="M48.8,79.1c-11.2,16.6-11.7,35.8,0.8,45.8C65,112,64.6,93.3,48.8,79.1z"/>
				</g>
				<g id="Group_124_1_" transform="translate(12.929 28.808)">
					<path id="Path_404_1_" class="st1" d="M52.4,120.3C66.1,104.9,77.8,96.1,89,95.7C80.7,113.2,68.6,121.1,52.4,120.3z"/>
				</g>
				<g id="Group_125_1_" transform="translate(20.155 17.565)">
					<path id="Path_405_1_" class="st1" d="M118.5,64.7c-11.7,16.2-29.5,23.3-43.3,15C81.5,61.4,99.8,55.2,118.5,64.7z"/>
				</g>
				<g id="Group_126_1_" transform="translate(18.578 10.742)">
					<path id="Path_406_1_" class="st1" d="M73.6,81c9.6-17.9,13.7-32,10-42.4C70.2,52.3,66.9,66.9,73.6,81z"/>
				</g>
				<g id="Group_127_1_" transform="translate(1.358 52.919)">
					<path id="Path_407_1_" class="st1" d="M16.6,171.9c-3.3,19.6,4.2,37,20,40.8C44.9,195.2,36.6,178.2,16.6,171.9z"/>
				</g>
				<g id="Group_128_1_" transform="translate(7.835 53.361)">
					<path id="Path_408_1_" class="st1" d="M36.3,210.8c5.8-19.6,12.9-32.5,22.9-37C58.7,192.5,51.2,205,36.3,210.8z"/>
				</g>
				<g id="Group_129_1_" transform="translate(8.72 41.122)">
					<path id="Path_409_1_" class="st1" d="M74.4,135.1c-5.4,19.1-19.6,32-35.4,29.1C38.7,144.6,53.6,132.6,74.4,135.1z"/>
				</g>
				<g id="Group_130_1_" transform="translate(5.126 36.79)">
					<path id="Path_410_1_" class="st1" d="M38.1,164.2c2.5-20,1.2-35-5.8-43.3C24.8,138.8,26.5,153,38.1,164.2z"/>
				</g>
				<g id="Group_131_1_" transform="translate(5.205 82.536)">
					<path id="Path_411_1_" class="st1" d="M28,266.4c6.2,18.7,21.2,30.8,36.6,27.5C64.2,274.3,48.8,262.6,28,266.4z"/>
				</g>
				<g id="Group_132_1_" transform="translate(14.571 77.775)">
					<path id="Path_412_1_" class="st1" d="M60.1,294.2c-4.2-20-3.3-35,3.3-43.7C71.7,268,70.9,282.1,60.1,294.2z"/>
				</g>
				<g id="Group_133_1_" transform="translate(8.938 65.43)">
					<path id="Path_413_1_" class="st1" d="M61.8,211.5c4.2,19.6-2.5,37-17.9,41.6C34.3,236,41.8,219,61.8,211.5z"/>
				</g>
				<g id="Group_134_1_" transform="translate(2.436 66.424)">
					<path id="Path_414_1_" class="st1" d="M43.8,250.8c-6.7-19.1-14.1-32-24.6-36.2C20.5,233.8,28.8,245.8,43.8,250.8z"/>
				</g>
				<g id="Group_135_1_" transform="translate(21.263 107.09)">
					<path id="Path_415_1_" class="st1" d="M78.7,350.7c13.7,14.1,32.5,18.7,44.9,8.7C114.5,341.9,95.8,338.2,78.7,350.7z"/>
				</g>
				<g id="Group_136_1_" transform="translate(28.596 99.76)">
					<path id="Path_416_1_" class="st1" d="M118.5,360.8c-12.5-16.6-18.7-30-16.2-40.8C117.7,332.1,123.1,345.4,118.5,360.8z"/>
				</g>
				<g id="Group_137_1_" transform="translate(19.172 89.402)">
					<path id="Path_417_1_" class="st1" d="M82.5,287.3c12.1,15.8,13.7,35,2.1,45.4C68.8,321.4,67.9,302.2,82.5,287.3z"/>
				</g>
				<g id="Group_138_1_" transform="translate(11.517 95.387)">
					<path id="Path_418_1_" class="st1" d="M86.2,328.2c-15-14.6-27.5-22.5-38.3-21.6C57.5,322.8,70,330.3,86.2,328.2z"/>
				</g>
				<g id="Group_139_1_" transform="translate(49.364 123.211)">
					<path id="Path_419_1_" class="st1" d="M167.5,411.6c18.7,7.1,37.9,3.3,44.5-10.8C196.3,389.1,177.9,393.7,167.5,411.6z"/>
				</g>
				<g id="Group_140_1_" transform="translate(52.243 116.082)">
					<path id="Path_420_1_" class="st1" d="M208.7,401.6c-18.3-9.6-29.5-19.1-32-30C195.8,375.8,206.2,385.7,208.7,401.6z"/>
				</g>
				<g id="Group_141_1_" transform="translate(38.394 107.768)">
					<path id="Path_421_1_" class="st1" d="M134.9,345.3c17.9,9.2,27.5,25.8,21.6,40.4C137,381.9,128.3,365.3,134.9,345.3z"/>
				</g>
				<g id="Group_142_1_" transform="translate(32.337 116.759)">
					<path id="Path_422_1_" class="st1" d="M157.4,380.4c-19.1-6.7-34.1-8.7-43.7-3.7C129.5,387.9,144.1,389.1,157.4,380.4z"/>
				</g>
				<g id="Group_143_1_" transform="translate(70.571 125.075)">
					<path id="Path_423_1_" class="st1" d="M277,421.7c-20,4.2-37.9-2.5-42.4-17.5C251.6,395,269.5,402.1,277,421.7z"/>
				</g>
				<g id="Group_144_1_" transform="translate(70.931 118.623)">
					<path id="Path_424_1_" class="st1" d="M235.7,404.6c19.6-7.1,32-14.6,36.2-24.6C252.8,380.9,240.7,389.2,235.7,404.6z"/>
				</g>
				<g id="Group_145_1_" transform="translate(70.571 125.075)">
					<path id="Path_425_1_" class="st1" d="M277,421.7c-20,4.2-37.9-2.5-42.4-17.5C251.6,395,269.5,402.1,277,421.7z"/>
				</g>
				<g id="Group_146_1_" transform="translate(70.931 118.623)">
					<path id="Path_426_1_" class="st1" d="M235.7,404.6c19.6-7.1,32-14.6,36.2-24.6C252.8,380.9,240.7,389.2,235.7,404.6z"/>
				</g>
				<path id="Path_427_1_" class="st2" d="M373.9,281.4l-8.7,9.6h-3.3l-15.8-23.3c-6.7,7.5-14.1,14.1-22.5,20
					c-6.2,4.6-13.7,7.1-21.2,7.5c-6.7,0-12.5-3.3-15.8-9.2c-4.2-6.2-5.8-16.2-5.8-30c0-7.9,2.1-15.8,6.2-22.9s12.5-12.9,24.6-18.7
					c-4.2-5.4-7.1-12.1-7.5-19.1c0-3.3,0.8-6.2,2.1-9.2c2.1-4.2,5-7.5,9.2-9.6c4.2-2.9,9.2-4.2,14.1-4.2c4.6,0,8.7,1.2,12.1,4.2
					c3.7,2.9,5.4,7.9,5,12.5c0.8,6.7-2.5,13.3-8.3,17.1c-6.7,3.7-13.3,7.1-20,10.4c2.5,4.2,5.8,9.6,9.6,15.8
					c4.2,6.2,10.4,16.2,18.7,29.1c5-5.4,9.2-11.2,12.5-17.9c1.7-3.3,2.9-5.4,3.7-5.4c0.8,0,1.2,0.4,1.7,0.8c0.4,0.4,0.8,1.2,0.4,2.1
					c-2.1,4.2-4.2,7.9-6.7,11.2c-2.9,4.6-6.2,8.7-9.6,12.9l14.6,21.6l7.1-7.5c0.4-0.4,1.2-0.8,1.7-0.8c1.2,0,2.1,0.8,2.1,2.1
					C374.4,280.5,374.4,280.9,373.9,281.4z M342.7,189c0-3.3-1.2-7.1-3.7-9.6c-2.5-2.1-5.4-3.3-8.7-2.9c-4.2,0-8.3,1.2-12.1,3.3
					c-3.3,1.7-5.8,3.7-7.5,7.1c-0.8,1.7-1.7,3.7-2.1,5.8c-0.4,1.2-0.4,2.5-0.4,3.7c0,2.5,0.4,5.4,1.7,7.9c1.7,2.9,3.3,5.8,5.8,8.7
					c7.5-3.3,15-7.1,22.1-11.2C341.5,198.6,343.6,193.6,342.7,189z M344,264.3c-6.2-9.2-12.1-17.9-17.5-26.6
					c-5.4-8.3-9.6-15-12.1-19.6c-7.9,3.3-15.4,8.3-21.6,14.6c-5.4,6.7-8.3,15-7.9,23.7c0,12.5,1.7,21.2,4.6,26.6
					c2.5,5,7.5,8.3,12.9,8.3c7.1-0.4,14.1-3.3,20-7.5C330.2,278,337.3,271.4,344,264.3L344,264.3z"/>
				<path id="Path_428_1_" class="st2" d="M478.8,290.1c0,13.7-6.2,26.6-17.1,34.5c-10.8,9.2-25,14.1-39.1,13.7
					c-9.6,0.4-19.1-3.3-26.2-9.6c-7.1-6.2-10.8-15.4-10.8-27.9l0.8-10c0-1.2,0.8-2.5,2.1-2.5h0.4c2.1,0,2.9,0.8,2.9,2.9v8.7
					c0,11.7,2.9,20,8.3,25.4c6.2,5.4,14.6,7.9,22.5,7.5c12.9,0,25-4.2,35-12.1c9.6-7.1,15.4-18.7,15-30.8V179c0-1.7,0.8-2.5,2.9-2.5
					c1.2,0,2.5,0.8,2.9,2.1v0.4L478.8,290.1z"/>
				<path id="Path_429_1_" class="st2" d="M274.5,112c0.8,2.5,0,3.7-2.5,3.7c-0.8,0-2.5-2.1-4.2-6.7c-2.1-5.4-6.7-9.6-11.7-12.1
					c-5.8-3.3-12.1-5-18.7-5c-1.7,0-7.1,0.8-16.6,1.7c-9.6,0.8-20.8,9.6-34.1,24.6s-19.6,35.8-19.6,61.6c-0.4,16.2,2.9,32,10.4,46.6
					c5.8,12.1,18.3,19.6,31.6,18.7c12.1-0.4,23.3-4.2,32.9-11.7c9.2-5.8,16.6-13.3,22.5-22.1c3.7-7.1,6.2-10.4,7.1-10.4
					s2.1,0.4,2.5,1.2c0.8,0.8,0.8,2.1,0,2.9c-7.1,12.9-17.1,24.1-29.1,32.9c-10.4,7.9-22.9,12.5-36.2,12.9
					c-15.4,0.8-29.5-7.5-36.2-21.2c-7.9-15.4-11.7-32.9-11.2-49.9c0-27.5,7.1-49.9,21.2-67.4c13.7-17.1,30.4-26.2,48.7-26.2h5.4
					c7.5,0,15.4,2.1,22.1,5.8C266.2,97,271.6,103.7,274.5,112z"/>
			</g>
		</g>
	</g>
	<text transform="matrix(1 0 0 1 202.7866 443.9464)" class="st2 st3 st4">17.07.2020</text>
</g>
</svg>
