<?xml version="1.0" encoding="utf-8"?>
<!-- Generator: Adobe Illustrator 24.0.3, SVG Export Plug-In . SVG Version: 6.00 Build 0)  -->
<svg version="1.1" id="Group_2030" xmlns="http://www.w3.org/2000/svg" xmlns:xlink="http://www.w3.org/1999/xlink" x="0px" y="0px"
	 viewBox="0 0 150.7 132.7" style="enable-background:new 0 0 150.7 132.7;" xml:space="preserve">
<style type="text/css">
	.st0{clip-path:url(#SVGID_2_);}
	.st1{fill-rule:evenodd;clip-rule:evenodd;fill:#FFFFFF;}
	.st2{fill:#FFFFFF;}
	.st3{font-family:'AmaticSC-Bold';}
	.st4{font-size:18.5388px;}
</style>
<g>
	<g>
		<defs>
			<rect id="SVGID_1_" x="2" y="0.4" width="146.8" height="131.9"/>
		</defs>
		<clipPath id="SVGID_2_">
			<use xlink:href="#SVGID_1_"  style="overflow:visible;"/>
		</clipPath>
		<g id="Group_148_1_" transform="translate(0 0)" class="st0">
			<g id="Group_55_1_" transform="translate(113.455 1.687)">
				<path id="Path_335_1_" class="st1" d="M2.8,0.4c4.1,2.5,6.1,6.6,4.4,10C2.6,9.2,0.8,5,2.8,0.4z"/>
			</g>
			<g id="Group_56_1_" transform="translate(106.895 10.302)">
				<path id="Path_336_1_" class="st1" d="M12.5,2.6c-4.5-2-8-2.8-10.5-1.7C5.6,3.9,9.1,4.5,12.5,2.6z"/>
			</g>
			<g id="Group_57_1_" transform="translate(132.891 23.975)">
				<path id="Path_337_1_" class="st1" d="M5,0.4C7.6,4.4,7.6,9,4.6,11.3C1,8.3,1.1,3.7,5,0.4z"/>
			</g>
			<g id="Group_58_1_" transform="translate(125.248 29.14)">
				<path id="Path_338_1_" class="st1" d="M10.7,6.4C7.5,2.7,4.6,0.5,2,0.4C3.9,4.6,6.8,6.6,10.7,6.4z"/>
			</g>
			<g id="Group_59_1_" transform="translate(116.471 17.848)">
				<path id="Path_339_1_" class="st1" d="M2,1.5c2.8,3.9,7.1,5.6,10.4,3.7C10.8,0.8,6.5-0.8,2,1.5z"/>
			</g>
			<g id="Group_60_1_" transform="translate(124.923 11.08)">
				<path id="Path_340_1_" class="st1" d="M4.7,10.6C2.4,6.3,1.4,2.9,2.4,0.4C5.6,3.8,6.3,7.1,4.7,10.6z"/>
			</g>
			<g id="Group_61_1_" transform="translate(139.607 53.361)">
				<path id="Path_341_1_" class="st1" d="M7.6,0.4c0.8,4.7-1.1,8.9-4.9,9.8C0.8,6,2.8,1.9,7.6,0.4z"/>
			</g>
			<g id="Group_62_1_" transform="translate(133.478 53.748)">
				<path id="Path_342_1_" class="st1" d="M7.4,9.4C6,4.7,4.4,1.6,2,0.4C2,5.1,3.8,8,7.4,9.4z"/>
			</g>
			<g id="Group_63_1_" transform="translate(129.648 41.49)">
				<path id="Path_343_1_" class="st1" d="M2,0.5c1.3,4.6,4.7,7.7,8.4,7C10.5,2.9,7-0.1,2,0.5z"/>
			</g>
			<g id="Group_64_1_" transform="translate(138.96 37.232)">
				<path id="Path_344_1_" class="st1" d="M2.3,10.8C1.7,5.9,1.9,2.4,3.7,0.4C5.5,4.7,5.1,8.1,2.3,10.8z"/>
			</g>
			<g id="Group_65_1_" transform="translate(132.532 82.959)">
				<path id="Path_345_1_" class="st1" d="M10.8,0.6C9.3,5.1,5.7,8,2,7.1C2.2,2.4,5.9-0.3,10.8,0.6z"/>
			</g>
			<g id="Group_66_1_" transform="translate(129.272 78.162)">
				<path id="Path_346_1_" class="st1" d="M4.1,10.9C5.1,6.1,5,2.5,3.4,0.4C1.3,4.5,1.6,8,4.1,10.9z"/>
			</g>
			<g id="Group_67_1_" transform="translate(132.189 65.817)">
				<path id="Path_347_1_" class="st1" d="M2.3,0.4c-1,4.6,0.6,8.9,4.3,10C8.8,6.4,7,2.2,2.3,0.4z"/>
			</g>
			<g id="Group_68_1_" transform="translate(138.288 66.866)">
				<path id="Path_348_1_" class="st1" d="M2,9.1c1.7-4.6,3.5-7.7,6-8.6C7.7,5.1,5.7,7.9,2,9.1z"/>
			</g>
			<g id="Group_69_1_" transform="translate(114.34 107.38)">
				<path id="Path_349_1_" class="st1" d="M12.8,2.2C9.5,5.6,5,6.6,2,4.2C4.2,0.1,8.8-0.8,12.8,2.2z"/>
			</g>
			<g id="Group_70_1_" transform="translate(113.464 100.063)">
				<path id="Path_350_1_" class="st1" d="M2.3,10.1c3-3.9,4.5-7.1,4-9.7C2.6,3.2,1.3,6.4,2.3,10.1z"/>
			</g>
			<g id="Group_71_1_" transform="translate(122.396 89.734)">
				<path id="Path_351_1_" class="st1" d="M4.5,0.4C1.5,4.2,1,8.7,3.9,11.3C7.7,8.6,8,4.1,4.5,0.4z"/>
			</g>
			<g id="Group_72_1_" transform="translate(125.772 95.772)">
				<path id="Path_352_1_" class="st1" d="M2,5.6c3.6-3.4,6.6-5.3,9.2-5.2C8.9,4.5,5.8,6.2,2,5.6z"/>
			</g>
			<g id="Group_73_1_" transform="translate(87.044 123.537)">
				<path id="Path_353_1_" class="st1" d="M12.7,4.7C8.2,6.4,3.7,5.4,2,2C5.8-0.8,10.3,0.3,12.7,4.7z"/>
			</g>
			<g id="Group_74_1_" transform="translate(87.211 116.441)">
				<path id="Path_354_1_" class="st1" d="M2,7.5C6.4,5.2,9.1,3,9.7,0.4C5.2,1.4,2.6,3.8,2,7.5z"/>
			</g>
			<g id="Group_75_1_" transform="translate(101.851 108.017)">
				<path id="Path_355_1_" class="st1" d="M7.6,0.4C3.4,2.6,1,6.5,2.4,10.1C7.1,9.2,9.2,5.2,7.6,0.4z"/>
			</g>
			<g id="Group_76_1_" transform="translate(103.49 117.009)">
				<path id="Path_356_1_" class="st1" d="M2,2c4.7-1.6,8.2-2.1,10.6-0.8C8.8,3.8,5.2,4.1,2,2z"/>
			</g>
			<g id="Group_77_1_" transform="translate(113.455 1.687)">
				<path id="Path_357_1_" class="st1" d="M2.8,0.4c4.1,2.5,6.1,6.6,4.4,10C2.6,9.2,0.8,5,2.8,0.4z"/>
			</g>
			<g id="Group_78_1_" transform="translate(106.895 10.302)">
				<path id="Path_358_1_" class="st1" d="M12.5,2.6c-4.5-2-8-2.8-10.5-1.7C5.6,3.9,9.1,4.5,12.5,2.6z"/>
			</g>
			<g id="Group_79_1_" transform="translate(132.891 23.975)">
				<path id="Path_359_1_" class="st1" d="M5,0.4C7.6,4.4,7.6,9,4.6,11.3C1,8.3,1.1,3.7,5,0.4z"/>
			</g>
			<g id="Group_80_1_" transform="translate(125.248 29.14)">
				<path id="Path_360_1_" class="st1" d="M10.7,6.4C7.5,2.7,4.6,0.5,2,0.4C3.9,4.6,6.8,6.6,10.7,6.4z"/>
			</g>
			<g id="Group_81_1_" transform="translate(116.471 17.848)">
				<path id="Path_361_1_" class="st1" d="M2,1.5c2.8,3.9,7.1,5.6,10.4,3.7C10.8,0.8,6.5-0.8,2,1.5z"/>
			</g>
			<g id="Group_82_1_" transform="translate(124.923 11.08)">
				<path id="Path_362_1_" class="st1" d="M4.7,10.6C2.4,6.3,1.4,2.9,2.4,0.4C5.6,3.8,6.3,7.1,4.7,10.6z"/>
			</g>
			<g id="Group_83_1_" transform="translate(139.607 53.361)">
				<path id="Path_363_1_" class="st1" d="M7.6,0.4c0.8,4.7-1.1,8.9-4.9,9.8C0.8,6,2.8,1.9,7.6,0.4z"/>
			</g>
			<g id="Group_84_1_" transform="translate(133.478 53.748)">
				<path id="Path_364_1_" class="st1" d="M7.4,9.4C6,4.7,4.4,1.6,2,0.4C2,5.1,3.8,8,7.4,9.4z"/>
			</g>
			<g id="Group_85_1_" transform="translate(129.648 41.49)">
				<path id="Path_365_1_" class="st1" d="M2,0.5c1.3,4.6,4.7,7.7,8.4,7C10.5,2.9,7-0.1,2,0.5z"/>
			</g>
			<g id="Group_86_1_" transform="translate(138.96 37.232)">
				<path id="Path_366_1_" class="st1" d="M2.3,10.8C1.7,5.9,1.9,2.4,3.7,0.4C5.5,4.7,5.1,8.1,2.3,10.8z"/>
			</g>
			<g id="Group_87_1_" transform="translate(132.532 82.959)">
				<path id="Path_367_1_" class="st1" d="M10.8,0.6C9.3,5.1,5.7,8,2,7.1C2.2,2.4,5.9-0.3,10.8,0.6z"/>
			</g>
			<g id="Group_88_1_" transform="translate(129.272 78.162)">
				<path id="Path_368_1_" class="st1" d="M4.1,10.9C5.1,6.1,5,2.5,3.4,0.4C1.3,4.5,1.6,8,4.1,10.9z"/>
			</g>
			<g id="Group_89_1_" transform="translate(132.189 65.817)">
				<path id="Path_369_1_" class="st1" d="M2.3,0.4c-1,4.6,0.6,8.9,4.3,10C8.8,6.4,7,2.2,2.3,0.4z"/>
			</g>
			<g id="Group_90_1_" transform="translate(138.288 66.866)">
				<path id="Path_370_1_" class="st1" d="M2,9.1c1.7-4.6,3.5-7.7,6-8.6C7.7,5.1,5.7,7.9,2,9.1z"/>
			</g>
			<g id="Group_91_1_" transform="translate(114.34 107.38)">
				<path id="Path_371_1_" class="st1" d="M12.8,2.2C9.5,5.6,5,6.6,2,4.2C4.2,0.1,8.8-0.8,12.8,2.2z"/>
			</g>
			<g id="Group_92_1_" transform="translate(113.464 100.063)">
				<path id="Path_372_1_" class="st1" d="M2.3,10.1c3-3.9,4.5-7.1,4-9.7C2.6,3.2,1.3,6.4,2.3,10.1z"/>
			</g>
			<g id="Group_93_1_" transform="translate(122.396 89.734)">
				<path id="Path_373_1_" class="st1" d="M4.5,0.4C1.5,4.2,1,8.7,3.9,11.3C7.7,8.6,8,4.1,4.5,0.4z"/>
			</g>
			<g id="Group_94_1_" transform="translate(125.772 95.772)">
				<path id="Path_374_1_" class="st1" d="M2,5.6c3.6-3.4,6.6-5.3,9.2-5.2C8.9,4.5,5.8,6.2,2,5.6z"/>
			</g>
			<g id="Group_95_1_" transform="translate(87.044 123.537)">
				<path id="Path_375_1_" class="st1" d="M12.7,4.7C8.2,6.4,3.7,5.4,2,2C5.8-0.8,10.3,0.3,12.7,4.7z"/>
			</g>
			<g id="Group_96_1_" transform="translate(87.211 116.441)">
				<path id="Path_376_1_" class="st1" d="M2,7.5C6.4,5.2,9.1,3,9.7,0.4C5.2,1.4,2.6,3.8,2,7.5z"/>
			</g>
			<g id="Group_97_1_" transform="translate(101.851 108.017)">
				<path id="Path_377_1_" class="st1" d="M7.6,0.4C3.4,2.6,1,6.5,2.4,10.1C7.1,9.2,9.2,5.2,7.6,0.4z"/>
			</g>
			<g id="Group_98_1_" transform="translate(103.49 117.009)">
				<path id="Path_378_1_" class="st1" d="M2,2c4.7-1.6,8.2-2.1,10.6-0.8C8.8,3.8,5.2,4.1,2,2z"/>
			</g>
			<g id="Group_99_1_" transform="translate(27.809 1.406)">
				<path id="Path_379_1_" class="st1" d="M7,0.4C2.9,2.9,0.9,7,2.6,10.4C7.2,9.2,9,5,7,0.4z"/>
			</g>
			<g id="Group_100_1_" transform="translate(29.68 10.088)">
				<path id="Path_380_1_" class="st1" d="M2,2.6c4.6-2,8.1-2.7,10.5-1.6C8.9,3.9,5.4,4.4,2,2.6z"/>
			</g>
			<g id="Group_101_1_" transform="translate(9.164 23.561)">
				<path id="Path_381_1_" class="st1" d="M4,0.4C1.3,4.4,1.2,9,4.2,11.4C7.9,8.3,7.8,3.8,4,0.4z"/>
			</g>
			<g id="Group_102_1_" transform="translate(12.929 28.808)">
				<path id="Path_382_1_" class="st1" d="M2,6.3c3.3-3.7,6.1-5.8,8.8-5.9C8.8,4.6,5.9,6.5,2,6.3z"/>
			</g>
			<g id="Group_103_1_" transform="translate(20.155 17.565)">
				<path id="Path_383_1_" class="st1" d="M12.4,1.5C9.6,5.4,5.3,7.1,2,5.1C3.5,0.7,7.9-0.8,12.4,1.5z"/>
			</g>
			<g id="Group_104_1_" transform="translate(18.578 10.742)">
				<path id="Path_384_1_" class="st1" d="M2.8,10.6C5.1,6.3,6.1,2.9,5.2,0.4C2,3.7,1.2,7.2,2.8,10.6z"/>
			</g>
			<g id="Group_105_1_" transform="translate(1.358 52.919)">
				<path id="Path_385_1_" class="st1" d="M2.2,0.4C1.4,5.1,3.2,9.3,7,10.2C9,6,7,1.9,2.2,0.4z"/>
			</g>
			<g id="Group_106_1_" transform="translate(7.835 53.361)">
				<path id="Path_386_1_" class="st1" d="M2,9.4c1.4-4.7,3.1-7.8,5.5-8.9C7.4,5,5.6,8,2,9.4z"/>
			</g>
			<g id="Group_107_1_" transform="translate(8.72 41.122)">
				<path id="Path_387_1_" class="st1" d="M10.5,0.5C9.2,5.1,5.8,8.2,2,7.5C1.9,2.8,5.5-0.1,10.5,0.5z"/>
			</g>
			<g id="Group_108_1_" transform="translate(5.126 36.79)">
				<path id="Path_388_1_" class="st1" d="M4.5,10.8C5.1,6,4.8,2.4,3.1,0.4C1.3,4.7,1.7,8.1,4.5,10.8z"/>
			</g>
			<g id="Group_109_1_" transform="translate(5.205 82.536)">
				<path id="Path_389_1_" class="st1" d="M2,0.6C3.5,5.1,7.1,8,10.8,7.2C10.7,2.5,7-0.3,2,0.6z"/>
			</g>
			<g id="Group_110_1_" transform="translate(14.571 77.775)">
				<path id="Path_390_1_" class="st1" d="M2.6,10.9C1.6,6.1,1.8,2.5,3.4,0.4C5.4,4.6,5.2,8,2.6,10.9z"/>
			</g>
			<g id="Group_111_1_" transform="translate(8.938 65.43)">
				<path id="Path_391_1_" class="st1" d="M7.3,0.4c1,4.7-0.6,8.9-4.3,10C0.7,6.3,2.5,2.2,7.3,0.4z"/>
			</g>
			<g id="Group_112_1_" transform="translate(2.436 66.424)">
				<path id="Path_392_1_" class="st1" d="M7.9,9.1C6.3,4.5,4.5,1.4,2,0.4C2.3,5,4.3,7.9,7.9,9.1z"/>
			</g>
			<g id="Group_113_1_" transform="translate(21.263 107.09)">
				<path id="Path_393_1_" class="st1" d="M2,2.2c3.3,3.4,7.8,4.5,10.8,2.1C10.6,0.1,6.1-0.8,2,2.2z"/>
			</g>
			<g id="Group_114_1_" transform="translate(28.596 99.76)">
				<path id="Path_394_1_" class="st1" d="M6,10.2C3,6.2,1.5,3,2.1,0.4C5.8,3.3,7.1,6.5,6,10.2z"/>
			</g>
			<g id="Group_115_1_" transform="translate(19.172 89.402)">
				<path id="Path_395_1_" class="st1" d="M4.5,0.4C7.4,4.2,7.8,8.8,5,11.3C1.2,8.6,1,4,4.5,0.4z"/>
			</g>
			<g id="Group_116_1_" transform="translate(11.517 95.387)">
				<path id="Path_396_1_" class="st1" d="M11.2,5.7C7.6,2.2,4.6,0.3,2,0.5C4.3,4.4,7.3,6.2,11.2,5.7z"/>
			</g>
			<g id="Group_117_1_" transform="translate(49.364 123.211)">
				<path id="Path_397_1_" class="st1" d="M2,4.6C6.5,6.3,11.1,5.4,12.7,2C8.9-0.8,4.5,0.3,2,4.6z"/>
			</g>
			<g id="Group_118_1_" transform="translate(52.243 116.082)">
				<path id="Path_398_1_" class="st1" d="M9.7,7.6C5.3,5.3,2.6,3,2,0.4C6.6,1.4,9.1,3.8,9.7,7.6z"/>
			</g>
			<g id="Group_119_1_" transform="translate(38.394 107.768)">
				<path id="Path_399_1_" class="st1" d="M2.5,0.4c4.3,2.2,6.6,6.2,5.2,9.7C3,9.2,0.9,5.2,2.5,0.4z"/>
			</g>
			<g id="Group_120_1_" transform="translate(32.337 116.759)">
				<path id="Path_400_1_" class="st1" d="M12.5,2C7.9,0.4,4.3-0.1,2,1.1C5.8,3.8,9.3,4.1,12.5,2z"/>
			</g>
			<g id="Group_121_1_" transform="translate(27.809 1.406)">
				<path id="Path_401_1_" class="st1" d="M7,0.4C2.9,2.9,0.9,7,2.6,10.4C7.2,9.2,9,5,7,0.4z"/>
			</g>
			<g id="Group_122_1_" transform="translate(29.68 10.088)">
				<path id="Path_402_1_" class="st1" d="M2,2.6c4.6-2,8.1-2.7,10.5-1.6C8.9,3.9,5.4,4.4,2,2.6z"/>
			</g>
			<g id="Group_123_1_" transform="translate(9.164 23.561)">
				<path id="Path_403_1_" class="st1" d="M4,0.4C1.3,4.4,1.2,9,4.2,11.4C7.9,8.3,7.8,3.8,4,0.4z"/>
			</g>
			<g id="Group_124_1_" transform="translate(12.929 28.808)">
				<path id="Path_404_1_" class="st1" d="M2,6.3c3.3-3.7,6.1-5.8,8.8-5.9C8.8,4.6,5.9,6.5,2,6.3z"/>
			</g>
			<g id="Group_125_1_" transform="translate(20.155 17.565)">
				<path id="Path_405_1_" class="st1" d="M12.4,1.5C9.6,5.4,5.3,7.1,2,5.1C3.5,0.7,7.9-0.8,12.4,1.5z"/>
			</g>
			<g id="Group_126_1_" transform="translate(18.578 10.742)">
				<path id="Path_406_1_" class="st1" d="M2.8,10.6C5.1,6.3,6.1,2.9,5.2,0.4C2,3.7,1.2,7.2,2.8,10.6z"/>
			</g>
			<g id="Group_127_1_" transform="translate(1.358 52.919)">
				<path id="Path_407_1_" class="st1" d="M2.2,0.4C1.4,5.1,3.2,9.3,7,10.2C9,6,7,1.9,2.2,0.4z"/>
			</g>
			<g id="Group_128_1_" transform="translate(7.835 53.361)">
				<path id="Path_408_1_" class="st1" d="M2,9.4c1.4-4.7,3.1-7.8,5.5-8.9C7.4,5,5.6,8,2,9.4z"/>
			</g>
			<g id="Group_129_1_" transform="translate(8.72 41.122)">
				<path id="Path_409_1_" class="st1" d="M10.5,0.5C9.2,5.1,5.8,8.2,2,7.5C1.9,2.8,5.5-0.1,10.5,0.5z"/>
			</g>
			<g id="Group_130_1_" transform="translate(5.126 36.79)">
				<path id="Path_410_1_" class="st1" d="M4.5,10.8C5.1,6,4.8,2.4,3.1,0.4C1.3,4.7,1.7,8.1,4.5,10.8z"/>
			</g>
			<g id="Group_131_1_" transform="translate(5.205 82.536)">
				<path id="Path_411_1_" class="st1" d="M2,0.6C3.5,5.1,7.1,8,10.8,7.2C10.7,2.5,7-0.3,2,0.6z"/>
			</g>
			<g id="Group_132_1_" transform="translate(14.571 77.775)">
				<path id="Path_412_1_" class="st1" d="M2.6,10.9C1.6,6.1,1.8,2.5,3.4,0.4C5.4,4.6,5.2,8,2.6,10.9z"/>
			</g>
			<g id="Group_133_1_" transform="translate(8.938 65.43)">
				<path id="Path_413_1_" class="st1" d="M7.3,0.4c1,4.7-0.6,8.9-4.3,10C0.7,6.3,2.5,2.2,7.3,0.4z"/>
			</g>
			<g id="Group_134_1_" transform="translate(2.436 66.424)">
				<path id="Path_414_1_" class="st1" d="M7.9,9.1C6.3,4.5,4.5,1.4,2,0.4C2.3,5,4.3,7.9,7.9,9.1z"/>
			</g>
			<g id="Group_135_1_" transform="translate(21.263 107.09)">
				<path id="Path_415_1_" class="st1" d="M2,2.2c3.3,3.4,7.8,4.5,10.8,2.1C10.6,0.1,6.1-0.8,2,2.2z"/>
			</g>
			<g id="Group_136_1_" transform="translate(28.596 99.76)">
				<path id="Path_416_1_" class="st1" d="M6,10.2C3,6.2,1.5,3,2.1,0.4C5.8,3.3,7.1,6.5,6,10.2z"/>
			</g>
			<g id="Group_137_1_" transform="translate(19.172 89.402)">
				<path id="Path_417_1_" class="st1" d="M4.5,0.4C7.4,4.2,7.8,8.8,5,11.3C1.2,8.6,1,4,4.5,0.4z"/>
			</g>
			<g id="Group_138_1_" transform="translate(11.517 95.387)">
				<path id="Path_418_1_" class="st1" d="M11.2,5.7C7.6,2.2,4.6,0.3,2,0.5C4.3,4.4,7.3,6.2,11.2,5.7z"/>
			</g>
			<g id="Group_139_1_" transform="translate(49.364 123.211)">
				<path id="Path_419_1_" class="st1" d="M2,4.6C6.5,6.3,11.1,5.4,12.7,2C8.9-0.8,4.5,0.3,2,4.6z"/>
			</g>
			<g id="Group_140_1_" transform="translate(52.243 116.082)">
				<path id="Path_420_1_" class="st1" d="M9.7,7.6C5.3,5.3,2.6,3,2,0.4C6.6,1.4,9.1,3.8,9.7,7.6z"/>
			</g>
			<g id="Group_141_1_" transform="translate(38.394 107.768)">
				<path id="Path_421_1_" class="st1" d="M2.5,0.4c4.3,2.2,6.6,6.2,5.2,9.7C3,9.2,0.9,5.2,2.5,0.4z"/>
			</g>
			<g id="Group_142_1_" transform="translate(32.337 116.759)">
				<path id="Path_422_1_" class="st1" d="M12.5,2C7.9,0.4,4.3-0.1,2,1.1C5.8,3.8,9.3,4.1,12.5,2z"/>
			</g>
			<g id="Group_143_1_" transform="translate(70.571 125.075)">
				<path id="Path_423_1_" class="st1" d="M12.2,5.6C7.4,6.6,3.1,5,2,1.4C6.1-0.8,10.4,0.9,12.2,5.6z"/>
			</g>
			<g id="Group_144_1_" transform="translate(70.931 118.623)">
				<path id="Path_424_1_" class="st1" d="M2,6.4c4.7-1.7,7.7-3.5,8.7-5.9C6.1,0.7,3.2,2.7,2,6.4z"/>
			</g>
			<g id="Group_145_1_" transform="translate(70.571 125.075)">
				<path id="Path_425_1_" class="st1" d="M12.2,5.6C7.4,6.6,3.1,5,2,1.4C6.1-0.8,10.4,0.9,12.2,5.6z"/>
			</g>
			<g id="Group_146_1_" transform="translate(70.931 118.623)">
				<path id="Path_426_1_" class="st1" d="M2,6.4c4.7-1.7,7.7-3.5,8.7-5.9C6.1,0.7,3.2,2.7,2,6.4z"/>
			</g>
			<path id="Path_427_1_" class="st2" d="M89.1,66.9L87,69.2h-0.8l-3.8-5.6c-1.6,1.8-3.4,3.4-5.4,4.8c-1.5,1.1-3.3,1.7-5.1,1.8
				c-1.6,0-3-0.8-3.8-2.2c-1-1.5-1.4-3.9-1.4-7.2c0-1.9,0.5-3.8,1.5-5.5c1-1.7,3-3.1,5.9-4.5c-1-1.3-1.7-2.9-1.8-4.6
				c0-0.8,0.2-1.5,0.5-2.2c0.5-1,1.2-1.8,2.2-2.3c1-0.7,2.2-1,3.4-1c1.1,0,2.1,0.3,2.9,1c0.9,0.7,1.3,1.9,1.2,3
				c0.2,1.6-0.6,3.2-2,4.1c-1.6,0.9-3.2,1.7-4.8,2.5c0.6,1,1.4,2.3,2.3,3.8c1,1.5,2.5,3.9,4.5,7c1.2-1.3,2.2-2.7,3-4.3
				c0.4-0.8,0.7-1.3,0.9-1.3c0.2,0,0.3,0.1,0.4,0.2c0.1,0.1,0.2,0.3,0.1,0.5c-0.5,1-1,1.9-1.6,2.7c-0.7,1.1-1.5,2.1-2.3,3.1l3.5,5.2
				l1.7-1.8c0.1-0.1,0.3-0.2,0.4-0.2c0.3,0,0.5,0.2,0.5,0.5C89.2,66.7,89.2,66.8,89.1,66.9z M81.6,44.7c0-0.8-0.3-1.7-0.9-2.3
				c-0.6-0.5-1.3-0.8-2.1-0.7c-1,0-2,0.3-2.9,0.8c-0.8,0.4-1.4,0.9-1.8,1.7c-0.2,0.4-0.4,0.9-0.5,1.4c-0.1,0.3-0.1,0.6-0.1,0.9
				c0,0.6,0.1,1.3,0.4,1.9c0.4,0.7,0.8,1.4,1.4,2.1c1.8-0.8,3.6-1.7,5.3-2.7C81.3,47,81.8,45.8,81.6,44.7z M81.9,62.8
				c-1.5-2.2-2.9-4.3-4.2-6.4c-1.3-2-2.3-3.6-2.9-4.7c-1.9,0.8-3.7,2-5.2,3.5c-1.3,1.6-2,3.6-1.9,5.7c0,3,0.4,5.1,1.1,6.4
				c0.6,1.2,1.8,2,3.1,2c1.7-0.1,3.4-0.8,4.8-1.8C78.6,66.1,80.3,64.5,81.9,62.8L81.9,62.8z"/>
			<path id="Path_428_1_" class="st2" d="M114.3,69c0,3.3-1.5,6.4-4.1,8.3c-2.6,2.2-6,3.4-9.4,3.3c-2.3,0.1-4.6-0.8-6.3-2.3
				c-1.7-1.5-2.6-3.7-2.6-6.7l0.2-2.4c0-0.3,0.2-0.6,0.5-0.6c0,0,0.1,0,0.1,0c0.5,0,0.7,0.2,0.7,0.7v2.1c0,2.8,0.7,4.8,2,6.1
				c1.5,1.3,3.5,1.9,5.4,1.8c3.1,0,6-1,8.4-2.9c2.3-1.7,3.7-4.5,3.6-7.4V42.3c0-0.4,0.2-0.6,0.7-0.6c0.3,0,0.6,0.2,0.7,0.5
				c0,0,0,0.1,0,0.1L114.3,69z"/>
			<path id="Path_429_1_" class="st2" d="M65.2,26.2c0.2,0.6,0,0.9-0.6,0.9c-0.2,0-0.6-0.5-1-1.6c-0.5-1.3-1.6-2.3-2.8-2.9
				c-1.4-0.8-2.9-1.2-4.5-1.2c-0.4,0-1.7,0.2-4,0.4c-2.3,0.2-5,2.3-8.2,5.9c-3.2,3.6-4.7,8.6-4.7,14.8c-0.1,3.9,0.7,7.7,2.5,11.2
				c1.4,2.9,4.4,4.7,7.6,4.5c2.9-0.1,5.6-1,7.9-2.8c2.2-1.4,4-3.2,5.4-5.3c0.9-1.7,1.5-2.5,1.7-2.5c0.2,0,0.5,0.1,0.6,0.3
				c0.2,0.2,0.2,0.5,0,0.7c-1.7,3.1-4.1,5.8-7,7.9c-2.5,1.9-5.5,3-8.7,3.1c-3.7,0.2-7.1-1.8-8.7-5.1c-1.9-3.7-2.8-7.9-2.7-12
				c0-6.6,1.7-12,5.1-16.2c3.3-4.1,7.3-6.3,11.7-6.3h1.3c1.8,0,3.7,0.5,5.3,1.4C63.2,22.6,64.5,24.2,65.2,26.2z"/>
		</g>
	</g>
	<text transform="matrix(1 0 0 1 47.9697 105.9722)" class="st2 st3 st4">17.07.2020</text>
</g>
</svg>
