<svg id="Group_2030" data-name="Group 2030" xmlns="http://www.w3.org/2000/svg" xmlns:xlink="http://www.w3.org/1999/xlink" width="150.739" height="132.739" viewBox="0 0 150.739 132.739">
  <defs>
    <clipPath id="clip-path">
      <path id="Path_430" data-name="Path 430" d="M0,7.852H146.757V-124H0Z" transform="translate(0 124)" fill="#fff"/>
    </clipPath>
  </defs>
  <text id="_" data-name=" " transform="translate(146.739 130.739)" fill="#fff" font-size="11" font-family="ArialMT, Arial"><tspan x="0" y="0"> </tspan></text>
  <g id="Group_148" data-name="Group 148" transform="translate(0 0)" clip-path="url(#clip-path)">
    <g id="Group_55" data-name="Group 55" transform="translate(113.455 1.687)">
      <path id="Path_335" data-name="Path 335" d="M99.782-113.528c4.1,2.463,6.121,6.625,4.377,10C99.588-104.777,97.738-108.973,99.782-113.528Z" transform="translate(-98.955 113.528)" fill="#fff" fill-rule="evenodd"/>
    </g>
    <g id="Group_56" data-name="Group 56" transform="translate(106.895 10.302)">
      <path id="Path_336" data-name="Path 336" d="M103.7-103.831c-4.513-1.991-8-2.767-10.465-1.71Q98.589-101.036,103.7-103.831Z" transform="translate(-93.233 106.014)" fill="#fff" fill-rule="evenodd"/>
    </g>
    <g id="Group_57" data-name="Group 57" transform="translate(132.891 23.975)">
      <path id="Path_337" data-name="Path 337" d="M118.875-94.09c2.622,3.95,2.679,8.562-.342,10.883C114.909-86.273,115.045-90.8,118.875-94.09Z" transform="translate(-115.906 94.09)" fill="#fff" fill-rule="evenodd"/>
    </g>
    <g id="Group_58" data-name="Group 58" transform="translate(125.248 29.14)">
      <path id="Path_338" data-name="Path 338" d="M117.994-83.675c-3.271-3.7-6.121-5.855-8.754-5.91C111.155-85.414,114.084-83.453,117.994-83.675Z" transform="translate(-109.24 89.585)" fill="#fff" fill-rule="evenodd"/>
    </g>
    <g id="Group_59" data-name="Group 59" transform="translate(116.471 17.848)">
      <path id="Path_339" data-name="Path 339" d="M101.585-98.384c2.77,3.891,7.09,5.631,10.418,3.7C110.419-99.1,106.133-100.679,101.585-98.384Z" transform="translate(-101.585 99.433)" fill="#fff" fill-rule="evenodd"/>
    </g>
    <g id="Group_60" data-name="Group 60" transform="translate(124.923 11.08)">
      <path id="Path_340" data-name="Path 340" d="M111.664-95.148c-2.325-4.34-3.294-7.759-2.348-10.189C112.519-102,113.294-98.633,111.664-95.148Z" transform="translate(-108.956 105.337)" fill="#fff" fill-rule="evenodd"/>
    </g>
    <g id="Group_61" data-name="Group 61" transform="translate(139.607 53.361)">
      <path id="Path_341" data-name="Path 341" d="M127.421-68.459c.752,4.7-1.128,8.893-4.9,9.777C120.536-62.935,122.553-67.023,127.421-68.459Z" transform="translate(-121.763 68.459)" fill="#fff" fill-rule="evenodd"/>
    </g>
    <g id="Group_62" data-name="Group 62" transform="translate(133.478 53.748)">
      <path id="Path_342" data-name="Path 342" d="M121.844-59.174c-1.391-4.7-3.043-7.815-5.426-8.948C116.418-63.51,118.242-60.554,121.844-59.174Z" transform="translate(-116.418 68.122)" fill="#fff" fill-rule="evenodd"/>
    </g>
    <g id="Group_63" data-name="Group 63" transform="translate(129.648 41.49)">
      <path id="Path_343" data-name="Path 343" d="M113.077-78.735c1.254,4.585,4.651,7.705,8.446,7.043C121.615-76.359,118.116-79.342,113.077-78.735Z" transform="translate(-113.077 78.813)" fill="#fff" fill-rule="evenodd"/>
    </g>
    <g id="Group_64" data-name="Group 64" transform="translate(138.96 37.232)">
      <path id="Path_344" data-name="Path 344" d="M121.5-72.169c-.6-4.862-.353-8.369,1.391-10.357C124.733-78.3,124.266-74.822,121.5-72.169Z" transform="translate(-121.2 82.527)" fill="#fff" fill-rule="evenodd"/>
    </g>
    <g id="Group_65" data-name="Group 65" transform="translate(132.532 82.959)">
      <path id="Path_345" data-name="Path 345" d="M124.449-42.469c-1.55,4.5-5.118,7.4-8.857,6.517C115.786-40.647,119.468-43.381,124.449-42.469Z" transform="translate(-115.593 42.644)" fill="#fff" fill-rule="evenodd"/>
    </g>
    <g id="Group_66" data-name="Group 66" transform="translate(129.272 78.162)">
      <path id="Path_346" data-name="Path 346" d="M114.9-36.389c.935-4.832.855-8.368-.775-10.44C112.054-42.74,112.328-39.26,114.9-36.389Z" transform="translate(-112.75 46.828)" fill="#fff" fill-rule="evenodd"/>
    </g>
    <g id="Group_67" data-name="Group 67" transform="translate(132.189 65.817)">
      <path id="Path_347" data-name="Path 347" d="M115.579-57.6c-.992,4.64.638,8.948,4.32,10.026C122.145-51.685,120.344-55.855,115.579-57.6Z" transform="translate(-115.294 57.595)" fill="#fff" fill-rule="evenodd"/>
    </g>
    <g id="Group_68" data-name="Group 68" transform="translate(138.288 66.866)">
      <path id="Path_348" data-name="Path 348" d="M120.613-48.036c1.664-4.612,3.522-7.65,6.007-8.644C126.324-52.068,124.3-49.2,120.613-48.036Z" transform="translate(-120.613 56.68)" fill="#fff" fill-rule="evenodd"/>
    </g>
    <g id="Group_69" data-name="Group 69" transform="translate(114.34 107.38)">
      <path id="Path_349" data-name="Path 349" d="M110.577-19.6c-3.374,3.424-7.888,4.446-10.851,2.044C101.971-21.673,106.508-22.558,110.577-19.6Z" transform="translate(-99.726 21.345)" fill="#fff" fill-rule="evenodd"/>
    </g>
    <g id="Group_70" data-name="Group 70" transform="translate(113.464 100.063)">
      <path id="Path_350" data-name="Path 350" d="M99.314-18.059c2.963-3.922,4.49-7.126,3.954-9.667C99.564-24.964,98.262-21.76,99.314-18.059Z" transform="translate(-98.962 27.726)" fill="#fff" fill-rule="evenodd"/>
    </g>
    <g id="Group_71" data-name="Group 71" transform="translate(122.396 89.734)">
      <path id="Path_351" data-name="Path 351" d="M109.251-36.735c-2.964,3.729-3.442,8.285-.616,10.882C112.488-28.588,112.762-33.116,109.251-36.735Z" transform="translate(-106.753 36.735)" fill="#fff" fill-rule="evenodd"/>
    </g>
    <g id="Group_72" data-name="Group 72" transform="translate(125.772 95.772)">
      <path id="Path_352" data-name="Path 352" d="M109.7-26.293c3.579-3.425,6.588-5.331,9.221-5.165C116.65-27.453,113.55-25.741,109.7-26.293Z" transform="translate(-109.697 31.468)" fill="#fff" fill-rule="evenodd"/>
    </g>
    <g id="Group_73" data-name="Group 73" transform="translate(87.044 123.537)">
      <path id="Path_353" data-name="Path 353" d="M86.605-3.025c-4.484,1.685-9.025.746-10.686-2.707C79.74-8.521,84.2-7.388,86.605-3.025Z" transform="translate(-75.919 7.252)" fill="#fff" fill-rule="evenodd"/>
    </g>
    <g id="Group_74" data-name="Group 74" transform="translate(87.211 116.441)">
      <path id="Path_354" data-name="Path 354" d="M76.064-6.343c4.374-2.32,7.142-4.557,7.752-7.1C79.275-12.474,76.7-10.127,76.064-6.343Z" transform="translate(-76.064 13.442)" fill="#fff" fill-rule="evenodd"/>
    </g>
    <g id="Group_75" data-name="Group 75" transform="translate(101.851 108.017)">
      <path id="Path_355" data-name="Path 355" d="M94.459-20.789c-4.263,2.155-6.644,6.076-5.2,9.612C93.9-12.033,96.092-16.037,94.459-20.789Z" transform="translate(-88.833 20.789)" fill="#fff" fill-rule="evenodd"/>
    </g>
    <g id="Group_76" data-name="Group 76" transform="translate(103.49 117.009)">
      <path id="Path_356" data-name="Path 356" d="M90.263-11.415c4.678-1.629,8.222-2.071,10.553-.773C97.045-9.565,93.5-9.316,90.263-11.415Z" transform="translate(-90.263 12.946)" fill="#fff" fill-rule="evenodd"/>
    </g>
    <g id="Group_77" data-name="Group 77" transform="translate(113.455 1.687)">
      <path id="Path_357" data-name="Path 357" d="M99.782-113.528c4.1,2.463,6.121,6.625,4.377,10C99.588-104.777,97.738-108.973,99.782-113.528Z" transform="translate(-98.955 113.528)" fill="#fff" fill-rule="evenodd"/>
    </g>
    <g id="Group_78" data-name="Group 78" transform="translate(106.895 10.302)">
      <path id="Path_358" data-name="Path 358" d="M103.7-103.831c-4.513-1.991-8-2.767-10.465-1.71Q98.589-101.036,103.7-103.831Z" transform="translate(-93.233 106.014)" fill="#fff" fill-rule="evenodd"/>
    </g>
    <g id="Group_79" data-name="Group 79" transform="translate(132.891 23.975)">
      <path id="Path_359" data-name="Path 359" d="M118.875-94.09c2.622,3.95,2.679,8.562-.342,10.883C114.909-86.273,115.045-90.8,118.875-94.09Z" transform="translate(-115.906 94.09)" fill="#fff" fill-rule="evenodd"/>
    </g>
    <g id="Group_80" data-name="Group 80" transform="translate(125.248 29.14)">
      <path id="Path_360" data-name="Path 360" d="M117.994-83.675c-3.271-3.7-6.121-5.855-8.754-5.91C111.155-85.414,114.084-83.453,117.994-83.675Z" transform="translate(-109.24 89.585)" fill="#fff" fill-rule="evenodd"/>
    </g>
    <g id="Group_81" data-name="Group 81" transform="translate(116.471 17.848)">
      <path id="Path_361" data-name="Path 361" d="M101.585-98.384c2.77,3.891,7.09,5.631,10.418,3.7C110.419-99.1,106.133-100.679,101.585-98.384Z" transform="translate(-101.585 99.433)" fill="#fff" fill-rule="evenodd"/>
    </g>
    <g id="Group_82" data-name="Group 82" transform="translate(124.923 11.08)">
      <path id="Path_362" data-name="Path 362" d="M111.664-95.148c-2.325-4.34-3.294-7.759-2.348-10.189C112.519-102,113.294-98.633,111.664-95.148Z" transform="translate(-108.956 105.337)" fill="#fff" fill-rule="evenodd"/>
    </g>
    <g id="Group_83" data-name="Group 83" transform="translate(139.607 53.361)">
      <path id="Path_363" data-name="Path 363" d="M127.421-68.459c.752,4.7-1.128,8.893-4.9,9.777C120.536-62.935,122.553-67.023,127.421-68.459Z" transform="translate(-121.763 68.459)" fill="#fff" fill-rule="evenodd"/>
    </g>
    <g id="Group_84" data-name="Group 84" transform="translate(133.478 53.748)">
      <path id="Path_364" data-name="Path 364" d="M121.844-59.174c-1.391-4.7-3.043-7.815-5.426-8.948C116.418-63.51,118.242-60.554,121.844-59.174Z" transform="translate(-116.418 68.122)" fill="#fff" fill-rule="evenodd"/>
    </g>
    <g id="Group_85" data-name="Group 85" transform="translate(129.648 41.49)">
      <path id="Path_365" data-name="Path 365" d="M113.077-78.735c1.254,4.585,4.651,7.705,8.446,7.043C121.615-76.359,118.116-79.342,113.077-78.735Z" transform="translate(-113.077 78.813)" fill="#fff" fill-rule="evenodd"/>
    </g>
    <g id="Group_86" data-name="Group 86" transform="translate(138.96 37.232)">
      <path id="Path_366" data-name="Path 366" d="M121.5-72.169c-.6-4.862-.353-8.369,1.391-10.357C124.733-78.3,124.266-74.822,121.5-72.169Z" transform="translate(-121.2 82.527)" fill="#fff" fill-rule="evenodd"/>
    </g>
    <g id="Group_87" data-name="Group 87" transform="translate(132.532 82.959)">
      <path id="Path_367" data-name="Path 367" d="M124.449-42.469c-1.55,4.5-5.118,7.4-8.857,6.517C115.786-40.647,119.468-43.381,124.449-42.469Z" transform="translate(-115.593 42.644)" fill="#fff" fill-rule="evenodd"/>
    </g>
    <g id="Group_88" data-name="Group 88" transform="translate(129.272 78.162)">
      <path id="Path_368" data-name="Path 368" d="M114.9-36.389c.935-4.832.855-8.368-.775-10.44C112.054-42.74,112.328-39.26,114.9-36.389Z" transform="translate(-112.75 46.828)" fill="#fff" fill-rule="evenodd"/>
    </g>
    <g id="Group_89" data-name="Group 89" transform="translate(132.189 65.817)">
      <path id="Path_369" data-name="Path 369" d="M115.579-57.6c-.992,4.64.638,8.948,4.32,10.026C122.145-51.685,120.344-55.855,115.579-57.6Z" transform="translate(-115.294 57.595)" fill="#fff" fill-rule="evenodd"/>
    </g>
    <g id="Group_90" data-name="Group 90" transform="translate(138.288 66.866)">
      <path id="Path_370" data-name="Path 370" d="M120.613-48.036c1.664-4.612,3.522-7.65,6.007-8.644C126.324-52.068,124.3-49.2,120.613-48.036Z" transform="translate(-120.613 56.68)" fill="#fff" fill-rule="evenodd"/>
    </g>
    <g id="Group_91" data-name="Group 91" transform="translate(114.34 107.38)">
      <path id="Path_371" data-name="Path 371" d="M110.577-19.6c-3.374,3.424-7.888,4.446-10.851,2.044C101.971-21.673,106.508-22.558,110.577-19.6Z" transform="translate(-99.726 21.345)" fill="#fff" fill-rule="evenodd"/>
    </g>
    <g id="Group_92" data-name="Group 92" transform="translate(113.464 100.063)">
      <path id="Path_372" data-name="Path 372" d="M99.314-18.059c2.963-3.922,4.49-7.126,3.954-9.667C99.564-24.964,98.262-21.76,99.314-18.059Z" transform="translate(-98.962 27.726)" fill="#fff" fill-rule="evenodd"/>
    </g>
    <g id="Group_93" data-name="Group 93" transform="translate(122.396 89.734)">
      <path id="Path_373" data-name="Path 373" d="M109.251-36.735c-2.964,3.729-3.442,8.285-.616,10.882C112.488-28.588,112.762-33.116,109.251-36.735Z" transform="translate(-106.753 36.735)" fill="#fff" fill-rule="evenodd"/>
    </g>
    <g id="Group_94" data-name="Group 94" transform="translate(125.772 95.772)">
      <path id="Path_374" data-name="Path 374" d="M109.7-26.293c3.579-3.425,6.588-5.331,9.221-5.165C116.65-27.453,113.55-25.741,109.7-26.293Z" transform="translate(-109.697 31.468)" fill="#fff" fill-rule="evenodd"/>
    </g>
    <g id="Group_95" data-name="Group 95" transform="translate(87.044 123.537)">
      <path id="Path_375" data-name="Path 375" d="M86.605-3.025c-4.484,1.685-9.025.746-10.686-2.707C79.74-8.521,84.2-7.388,86.605-3.025Z" transform="translate(-75.919 7.252)" fill="#fff" fill-rule="evenodd"/>
    </g>
    <g id="Group_96" data-name="Group 96" transform="translate(87.211 116.441)">
      <path id="Path_376" data-name="Path 376" d="M76.064-6.343c4.374-2.32,7.142-4.557,7.752-7.1C79.275-12.474,76.7-10.127,76.064-6.343Z" transform="translate(-76.064 13.442)" fill="#fff" fill-rule="evenodd"/>
    </g>
    <g id="Group_97" data-name="Group 97" transform="translate(101.851 108.017)">
      <path id="Path_377" data-name="Path 377" d="M94.459-20.789c-4.263,2.155-6.644,6.076-5.2,9.612C93.9-12.033,96.092-16.037,94.459-20.789Z" transform="translate(-88.833 20.789)" fill="#fff" fill-rule="evenodd"/>
    </g>
    <g id="Group_98" data-name="Group 98" transform="translate(103.49 117.009)">
      <path id="Path_378" data-name="Path 378" d="M90.263-11.415c4.678-1.629,8.222-2.071,10.553-.773C97.045-9.565,93.5-9.316,90.263-11.415Z" transform="translate(-90.263 12.946)" fill="#fff" fill-rule="evenodd"/>
    </g>
    <g id="Group_99" data-name="Group 99" transform="translate(27.809 1.406)">
      <path id="Path_379" data-name="Path 379" d="M29.309-113.774c-4.125,2.463-6.175,6.58-4.43,9.977C29.42-105.045,31.274-109.184,29.309-113.774Z" transform="translate(-24.255 113.774)" fill="#fff" fill-rule="evenodd"/>
    </g>
    <g id="Group_100" data-name="Group 100" transform="translate(29.68 10.088)">
      <path id="Path_380" data-name="Path 380" d="M25.886-104.085c4.567-1.957,8.084-2.7,10.52-1.62C32.808-102.78,29.318-102.229,25.886-104.085Z" transform="translate(-25.886 106.202)" fill="#fff" fill-rule="evenodd"/>
    </g>
    <g id="Group_101" data-name="Group 101" transform="translate(9.164 23.561)">
      <path id="Path_381" data-name="Path 381" d="M9.986-94.451c-2.658,3.949-2.741,8.534.249,10.91C13.862-86.607,13.752-91.136,9.986-94.451Z" transform="translate(-7.992 94.451)" fill="#fff" fill-rule="evenodd"/>
    </g>
    <g id="Group_102" data-name="Group 102" transform="translate(12.929 28.808)">
      <path id="Path_382" data-name="Path 382" d="M11.277-84.018c3.267-3.7,6.146-5.828,8.776-5.856C18.088-85.731,15.152-83.77,11.277-84.018Z" transform="translate(-11.277 89.874)" fill="#fff" fill-rule="evenodd"/>
    </g>
    <g id="Group_103" data-name="Group 103" transform="translate(20.155 17.565)">
      <path id="Path_383" data-name="Path 383" d="M27.962-98.6c-2.8,3.862-7.116,5.547-10.383,3.613C19.129-99.405,23.477-100.924,27.962-98.6Z" transform="translate(-17.579 99.68)" fill="#fff" fill-rule="evenodd"/>
    </g>
    <g id="Group_104" data-name="Group 104" transform="translate(18.578 10.742)">
      <path id="Path_384" data-name="Path 384" d="M17.005-95.464c2.354-4.307,3.35-7.7,2.437-10.167C16.2-102.335,15.4-98.916,17.005-95.464Z" transform="translate(-16.204 105.631)" fill="#fff" fill-rule="evenodd"/>
    </g>
    <g id="Group_105" data-name="Group 105" transform="translate(1.358 52.919)">
      <path id="Path_385" data-name="Path 385" d="M1.349-68.845c-.748,4.668,1.08,8.866,4.845,9.777C8.215-63.293,6.222-67.38,1.349-68.845Z" transform="translate(-1.184 68.845)" fill="#fff" fill-rule="evenodd"/>
    </g>
    <g id="Group_106" data-name="Group 106" transform="translate(7.835 53.361)">
      <path id="Path_386" data-name="Path 386" d="M6.834-59.538c1.412-4.7,3.129-7.816,5.537-8.921C12.288-63.9,10.461-60.892,6.834-59.538Z" transform="translate(-6.834 68.459)" fill="#fff" fill-rule="evenodd"/>
    </g>
    <g id="Group_107" data-name="Group 107" transform="translate(8.72 41.122)">
      <path id="Path_387" data-name="Path 387" d="M16.106-79.047c-1.246,4.585-4.706,7.65-8.5,6.959C7.551-76.782,11.067-79.682,16.106-79.047Z" transform="translate(-7.606 79.134)" fill="#fff" fill-rule="evenodd"/>
    </g>
    <g id="Group_108" data-name="Group 108" transform="translate(5.126 36.79)">
      <path id="Path_388" data-name="Path 388" d="M6.931-72.528c.665-4.86.388-8.4-1.329-10.384C3.747-78.686,4.162-75.234,6.931-72.528Z" transform="translate(-4.471 82.912)" fill="#fff" fill-rule="evenodd"/>
    </g>
    <g id="Group_109" data-name="Group 109" transform="translate(5.205 82.536)">
      <path id="Path_389" data-name="Path 389" d="M4.54-42.857c1.523,4.53,5.094,7.429,8.8,6.573C13.206-40.979,9.579-43.713,4.54-42.857Z" transform="translate(-4.54 43.013)" fill="#fff" fill-rule="evenodd"/>
    </g>
    <g id="Group_110" data-name="Group 110" transform="translate(14.571 77.775)">
      <path id="Path_390" data-name="Path 390" d="M13.282-36.725c-.914-4.833-.8-8.369.831-10.441C16.161-43.023,15.911-39.57,13.282-36.725Z" transform="translate(-12.709 47.166)" fill="#fff" fill-rule="evenodd"/>
    </g>
    <g id="Group_111" data-name="Group 111" transform="translate(8.938 65.43)">
      <path id="Path_391" data-name="Path 391" d="M13.06-57.933c1,4.668-.636,8.948-4.319,10C6.527-52.05,8.3-56.221,13.06-57.933Z" transform="translate(-7.796 57.933)" fill="#fff" fill-rule="evenodd"/>
    </g>
    <g id="Group_112" data-name="Group 112" transform="translate(2.436 66.424)">
      <path id="Path_392" data-name="Path 392" d="M8.077-48.393c-1.633-4.64-3.488-7.678-5.952-8.672C2.4-52.481,4.4-49.609,8.077-48.393Z" transform="translate(-2.125 57.065)" fill="#fff" fill-rule="evenodd"/>
    </g>
    <g id="Group_113" data-name="Group 113" transform="translate(21.263 107.09)">
      <path id="Path_393" data-name="Path 393" d="M18.545-19.869c3.322,3.4,7.807,4.475,10.8,2.072C27.127-21.94,22.643-22.8,18.545-19.869Z" transform="translate(-18.545 21.598)" fill="#fff" fill-rule="evenodd"/>
    </g>
    <g id="Group_114" data-name="Group 114" transform="translate(28.596 99.76)">
      <path id="Path_394" data-name="Path 394" d="M28.931-18.269C26-22.218,24.5-25.45,25.055-27.991,28.738-25.174,30.038-21.969,28.931-18.269Z" transform="translate(-24.941 27.991)" fill="#fff" fill-rule="evenodd"/>
    </g>
    <g id="Group_115" data-name="Group 115" transform="translate(19.172 89.402)">
      <path id="Path_395" data-name="Path 395" d="M19.228-37.024c2.935,3.757,3.35,8.314.527,10.882C15.933-28.9,15.684-33.461,19.228-37.024Z" transform="translate(-16.721 37.024)" fill="#fff" fill-rule="evenodd"/>
    </g>
    <g id="Group_116" data-name="Group 116" transform="translate(11.517 95.387)">
      <path id="Path_396" data-name="Path 396" d="M19.237-26.576c-3.544-3.452-6.561-5.386-9.192-5.219C12.316-27.819,15.389-26.079,19.237-26.576Z" transform="translate(-10.045 31.805)" fill="#fff" fill-rule="evenodd"/>
    </g>
    <g id="Group_117" data-name="Group 117" transform="translate(49.364 123.211)">
      <path id="Path_397" data-name="Path 397" d="M43.055-3.342c4.513,1.685,9.081.773,10.742-2.624C50-8.811,45.546-7.706,43.055-3.342Z" transform="translate(-43.055 7.537)" fill="#fff" fill-rule="evenodd"/>
    </g>
    <g id="Group_118" data-name="Group 118" transform="translate(52.243 116.082)">
      <path id="Path_398" data-name="Path 398" d="M53.291-6.574c-4.375-2.348-7.116-4.64-7.725-7.181C50.135-12.788,52.708-10.385,53.291-6.574Z" transform="translate(-45.566 13.754)" fill="#fff" fill-rule="evenodd"/>
    </g>
    <g id="Group_119" data-name="Group 119" transform="translate(38.394 107.768)">
      <path id="Path_399" data-name="Path 399" d="M34.046-21.006c4.264,2.21,6.617,6.16,5.15,9.667C34.517-12.25,32.386-16.254,34.046-21.006Z" transform="translate(-33.487 21.006)" fill="#fff" fill-rule="evenodd"/>
    </g>
    <g id="Group_120" data-name="Group 120" transform="translate(32.337 116.759)">
      <path id="Path_400" data-name="Path 400" d="M38.752-11.577C34.074-13.234,30.5-13.7,28.2-12.46,31.97-9.782,35.485-9.5,38.752-11.577Z" transform="translate(-28.204 13.164)" fill="#fff" fill-rule="evenodd"/>
    </g>
    <g id="Group_121" data-name="Group 121" transform="translate(27.809 1.406)">
      <path id="Path_401" data-name="Path 401" d="M29.309-113.774c-4.125,2.463-6.175,6.58-4.43,9.977C29.42-105.045,31.274-109.184,29.309-113.774Z" transform="translate(-24.255 113.774)" fill="#fff" fill-rule="evenodd"/>
    </g>
    <g id="Group_122" data-name="Group 122" transform="translate(29.68 10.088)">
      <path id="Path_402" data-name="Path 402" d="M25.886-104.085c4.567-1.957,8.084-2.7,10.52-1.62C32.808-102.78,29.318-102.229,25.886-104.085Z" transform="translate(-25.886 106.202)" fill="#fff" fill-rule="evenodd"/>
    </g>
    <g id="Group_123" data-name="Group 123" transform="translate(9.164 23.561)">
      <path id="Path_403" data-name="Path 403" d="M9.986-94.451c-2.658,3.949-2.741,8.534.249,10.91C13.862-86.607,13.752-91.136,9.986-94.451Z" transform="translate(-7.992 94.451)" fill="#fff" fill-rule="evenodd"/>
    </g>
    <g id="Group_124" data-name="Group 124" transform="translate(12.929 28.808)">
      <path id="Path_404" data-name="Path 404" d="M11.277-84.018c3.267-3.7,6.146-5.828,8.776-5.856C18.088-85.731,15.152-83.77,11.277-84.018Z" transform="translate(-11.277 89.874)" fill="#fff" fill-rule="evenodd"/>
    </g>
    <g id="Group_125" data-name="Group 125" transform="translate(20.155 17.565)">
      <path id="Path_405" data-name="Path 405" d="M27.962-98.6c-2.8,3.862-7.116,5.547-10.383,3.613C19.129-99.405,23.477-100.924,27.962-98.6Z" transform="translate(-17.579 99.68)" fill="#fff" fill-rule="evenodd"/>
    </g>
    <g id="Group_126" data-name="Group 126" transform="translate(18.578 10.742)">
      <path id="Path_406" data-name="Path 406" d="M17.005-95.464c2.354-4.307,3.35-7.7,2.437-10.167C16.2-102.335,15.4-98.916,17.005-95.464Z" transform="translate(-16.204 105.631)" fill="#fff" fill-rule="evenodd"/>
    </g>
    <g id="Group_127" data-name="Group 127" transform="translate(1.358 52.919)">
      <path id="Path_407" data-name="Path 407" d="M1.349-68.845c-.748,4.668,1.08,8.866,4.845,9.777C8.215-63.293,6.222-67.38,1.349-68.845Z" transform="translate(-1.184 68.845)" fill="#fff" fill-rule="evenodd"/>
    </g>
    <g id="Group_128" data-name="Group 128" transform="translate(7.835 53.361)">
      <path id="Path_408" data-name="Path 408" d="M6.834-59.538c1.412-4.7,3.129-7.816,5.537-8.921C12.288-63.9,10.461-60.892,6.834-59.538Z" transform="translate(-6.834 68.459)" fill="#fff" fill-rule="evenodd"/>
    </g>
    <g id="Group_129" data-name="Group 129" transform="translate(8.72 41.122)">
      <path id="Path_409" data-name="Path 409" d="M16.106-79.047c-1.246,4.585-4.706,7.65-8.5,6.959C7.551-76.782,11.067-79.682,16.106-79.047Z" transform="translate(-7.606 79.134)" fill="#fff" fill-rule="evenodd"/>
    </g>
    <g id="Group_130" data-name="Group 130" transform="translate(5.126 36.79)">
      <path id="Path_410" data-name="Path 410" d="M6.931-72.528c.665-4.86.388-8.4-1.329-10.384C3.747-78.686,4.162-75.234,6.931-72.528Z" transform="translate(-4.471 82.912)" fill="#fff" fill-rule="evenodd"/>
    </g>
    <g id="Group_131" data-name="Group 131" transform="translate(5.205 82.536)">
      <path id="Path_411" data-name="Path 411" d="M4.54-42.857c1.523,4.53,5.094,7.429,8.8,6.573C13.206-40.979,9.579-43.713,4.54-42.857Z" transform="translate(-4.54 43.013)" fill="#fff" fill-rule="evenodd"/>
    </g>
    <g id="Group_132" data-name="Group 132" transform="translate(14.571 77.775)">
      <path id="Path_412" data-name="Path 412" d="M13.282-36.725c-.914-4.833-.8-8.369.831-10.441C16.161-43.023,15.911-39.57,13.282-36.725Z" transform="translate(-12.709 47.166)" fill="#fff" fill-rule="evenodd"/>
    </g>
    <g id="Group_133" data-name="Group 133" transform="translate(8.938 65.43)">
      <path id="Path_413" data-name="Path 413" d="M13.06-57.933c1,4.668-.636,8.948-4.319,10C6.527-52.05,8.3-56.221,13.06-57.933Z" transform="translate(-7.796 57.933)" fill="#fff" fill-rule="evenodd"/>
    </g>
    <g id="Group_134" data-name="Group 134" transform="translate(2.436 66.424)">
      <path id="Path_414" data-name="Path 414" d="M8.077-48.393c-1.633-4.64-3.488-7.678-5.952-8.672C2.4-52.481,4.4-49.609,8.077-48.393Z" transform="translate(-2.125 57.065)" fill="#fff" fill-rule="evenodd"/>
    </g>
    <g id="Group_135" data-name="Group 135" transform="translate(21.263 107.09)">
      <path id="Path_415" data-name="Path 415" d="M18.545-19.869c3.322,3.4,7.807,4.475,10.8,2.072C27.127-21.94,22.643-22.8,18.545-19.869Z" transform="translate(-18.545 21.598)" fill="#fff" fill-rule="evenodd"/>
    </g>
    <g id="Group_136" data-name="Group 136" transform="translate(28.596 99.76)">
      <path id="Path_416" data-name="Path 416" d="M28.931-18.269C26-22.218,24.5-25.45,25.055-27.991,28.738-25.174,30.038-21.969,28.931-18.269Z" transform="translate(-24.941 27.991)" fill="#fff" fill-rule="evenodd"/>
    </g>
    <g id="Group_137" data-name="Group 137" transform="translate(19.172 89.402)">
      <path id="Path_417" data-name="Path 417" d="M19.228-37.024c2.935,3.757,3.35,8.314.527,10.882C15.933-28.9,15.684-33.461,19.228-37.024Z" transform="translate(-16.721 37.024)" fill="#fff" fill-rule="evenodd"/>
    </g>
    <g id="Group_138" data-name="Group 138" transform="translate(11.517 95.387)">
      <path id="Path_418" data-name="Path 418" d="M19.237-26.576c-3.544-3.452-6.561-5.386-9.192-5.219C12.316-27.819,15.389-26.079,19.237-26.576Z" transform="translate(-10.045 31.805)" fill="#fff" fill-rule="evenodd"/>
    </g>
    <g id="Group_139" data-name="Group 139" transform="translate(49.364 123.211)">
      <path id="Path_419" data-name="Path 419" d="M43.055-3.342c4.513,1.685,9.081.773,10.742-2.624C50-8.811,45.546-7.706,43.055-3.342Z" transform="translate(-43.055 7.537)" fill="#fff" fill-rule="evenodd"/>
    </g>
    <g id="Group_140" data-name="Group 140" transform="translate(52.243 116.082)">
      <path id="Path_420" data-name="Path 420" d="M53.291-6.574c-4.375-2.348-7.116-4.64-7.725-7.181C50.135-12.788,52.708-10.385,53.291-6.574Z" transform="translate(-45.566 13.754)" fill="#fff" fill-rule="evenodd"/>
    </g>
    <g id="Group_141" data-name="Group 141" transform="translate(38.394 107.768)">
      <path id="Path_421" data-name="Path 421" d="M34.046-21.006c4.264,2.21,6.617,6.16,5.15,9.667C34.517-12.25,32.386-16.254,34.046-21.006Z" transform="translate(-33.487 21.006)" fill="#fff" fill-rule="evenodd"/>
    </g>
    <g id="Group_142" data-name="Group 142" transform="translate(32.337 116.759)">
      <path id="Path_422" data-name="Path 422" d="M38.752-11.577C34.074-13.234,30.5-13.7,28.2-12.46,31.97-9.782,35.485-9.5,38.752-11.577Z" transform="translate(-28.204 13.164)" fill="#fff" fill-rule="evenodd"/>
    </g>
    <g id="Group_143" data-name="Group 143" transform="translate(70.571 125.075)">
      <path id="Path_423" data-name="Path 423" d="M71.712-.736c-4.706.994-9.053-.58-10.161-4.226C65.7-7.171,69.941-5.431,71.712-.736Z" transform="translate(-61.551 5.911)" fill="#fff" fill-rule="evenodd"/>
    </g>
    <g id="Group_144" data-name="Group 144" transform="translate(70.931 118.623)">
      <path id="Path_424" data-name="Path 424" d="M61.866-5.628c4.651-1.657,7.724-3.507,8.721-5.91C65.935-11.235,63.028-9.274,61.866-5.628Z" transform="translate(-61.866 11.538)" fill="#fff" fill-rule="evenodd"/>
    </g>
    <g id="Group_145" data-name="Group 145" transform="translate(70.571 125.075)">
      <path id="Path_425" data-name="Path 425" d="M71.712-.736c-4.706.994-9.053-.58-10.161-4.226C65.7-7.171,69.941-5.431,71.712-.736Z" transform="translate(-61.551 5.911)" fill="#fff" fill-rule="evenodd"/>
    </g>
    <g id="Group_146" data-name="Group 146" transform="translate(70.931 118.623)">
      <path id="Path_426" data-name="Path 426" d="M61.866-5.628c4.651-1.657,7.724-3.507,8.721-5.91C65.935-11.235,63.028-9.274,61.866-5.628Z" transform="translate(-61.866 11.538)" fill="#fff" fill-rule="evenodd"/>
    </g>
    <path id="Path_427" data-name="Path 427" d="M78.827-62.664l-2.1,2.292h-.775l-3.793-5.606a27.593,27.593,0,0,1-5.427,4.805,9.439,9.439,0,0,1-5.094,1.767,4.308,4.308,0,0,1-3.765-2.209c-.969-1.519-1.412-3.894-1.412-7.153a10.091,10.091,0,0,1,1.5-5.5c1.024-1.685,2.963-3.121,5.9-4.5A8.281,8.281,0,0,1,62.1-83.349a6.24,6.24,0,0,1,.471-2.237,5.237,5.237,0,0,1,2.187-2.321,6.054,6.054,0,0,1,3.4-.994,4.114,4.114,0,0,1,2.879.994,3.615,3.615,0,0,1,1.219,2.983,4.387,4.387,0,0,1-2.021,4.116,45.449,45.449,0,0,1-4.817,2.458c.609,1.021,1.384,2.264,2.325,3.784,1,1.547,2.464,3.866,4.513,6.959a22.743,22.743,0,0,0,3.018-4.281c.415-.828.692-1.3.858-1.3a.6.6,0,0,1,.442.193.453.453,0,0,1,.111.5,20.534,20.534,0,0,1-1.578,2.734A37.775,37.775,0,0,1,72.846-66.7l3.516,5.247,1.661-1.794a.653.653,0,0,1,.443-.193c.3,0,.471.165.471.5A.37.37,0,0,1,78.827-62.664ZM71.3-84.924a3.011,3.011,0,0,0-.858-2.264,3.041,3.041,0,0,0-2.077-.746,5.557,5.557,0,0,0-2.851.8,4.17,4.17,0,0,0-1.827,1.657,7.955,7.955,0,0,0-.471,1.381,3.633,3.633,0,0,0-.139.911,5.2,5.2,0,0,0,.388,1.878,10.014,10.014,0,0,0,1.356,2.071,35.015,35.015,0,0,0,5.26-2.706A3.084,3.084,0,0,0,71.3-84.924Zm.3,18.118c-1.494-2.209-2.852-4.336-4.208-6.435-1.329-2.016-2.269-3.562-2.879-4.667a15.982,15.982,0,0,0-5.177,3.479,7.957,7.957,0,0,0-1.91,5.662c0,2.955.36,5.109,1.081,6.435a3.38,3.38,0,0,0,3.128,1.961,9.006,9.006,0,0,0,4.762-1.8A28.51,28.51,0,0,0,71.6-66.807Z" transform="translate(8.273 129.143)" fill="#fff"/>
    <path id="Path_428" data-name="Path 428" d="M100.8-60.726a10.4,10.4,0,0,1-4.1,8.341,14.573,14.573,0,0,1-9.386,3.342,9.247,9.247,0,0,1-6.313-2.292c-1.717-1.52-2.575-3.729-2.575-6.739l.166-2.431a.561.561,0,0,1,.636-.607c.471,0,.693.249.693.718v2.072c0,2.817.692,4.833,2.048,6.1A7.685,7.685,0,0,0,87.4-50.4a12.99,12.99,0,0,0,8.388-2.928,9.114,9.114,0,0,0,3.627-7.4V-87.378c0-.387.25-.609.719-.609a.584.584,0,0,1,.665.609Z" transform="translate(11.493 129.277)" fill="#fff"/>
    <path id="Path_429" data-name="Path 429" d="M58.6-100.744c.166.58,0,.912-.636.912-.25,0-.581-.525-.969-1.575a5.516,5.516,0,0,0-2.825-2.872,9.357,9.357,0,0,0-4.513-1.243c-.36,0-1.717.165-3.987.442-2.3.249-5.038,2.292-8.167,5.91-3.156,3.646-4.734,8.617-4.734,14.776A23.562,23.562,0,0,0,35.23-73.18a8.047,8.047,0,0,0,7.64,4.529,13.626,13.626,0,0,0,7.919-2.788,17.97,17.97,0,0,0,5.426-5.331c.914-1.657,1.5-2.486,1.689-2.486a.687.687,0,0,1,.581.332.577.577,0,0,1,.027.69,24.167,24.167,0,0,1-7,7.872A14.616,14.616,0,0,1,42.843-67.3a9.14,9.14,0,0,1-8.694-5.082A25.441,25.441,0,0,1,31.464-84.42c0-6.6,1.689-11.959,5.094-16.157,3.35-4.143,7.254-6.27,11.656-6.27h1.273a11.252,11.252,0,0,1,5.26,1.436A8.42,8.42,0,0,1,58.6-100.744Z" transform="translate(4.611 126.514)" fill="#fff"/>
    <g id="Group_147" data-name="Group 147" transform="translate(44.159 86.079)">
      <g id="Group" transform="translate(0 0)">
        <text id="_1" data-name="1" transform="translate(0 9)" fill="#fff" font-size="10" font-family="TimesNewRomanPSMT, Times New Roman"><tspan x="0" y="0">1</tspan></text>
        <text id="_7" data-name="7" transform="translate(3.468 9)" fill="#fff" font-size="10" font-family="TimesNewRomanPSMT, Times New Roman"><tspan x="0" y="0">7</tspan></text>
        <text id="_." data-name="." transform="translate(9.529 8)" fill="#fff" font-size="9" font-family="TimesNewRomanPSMT, Times New Roman"><tspan x="0" y="0">.</tspan></text>
        <text id="_0" data-name="0" transform="translate(12.137 9)" fill="#fff" font-size="10" font-family="TimesNewRomanPSMT, Times New Roman"><tspan x="0" y="0">0</tspan></text>
        <text id="_7-2" data-name="7" transform="translate(19.905 9)" fill="#fff" font-size="10" font-family="TimesNewRomanPSMT, Times New Roman"><tspan x="0" y="0">7</tspan></text>
        <text id="_.-2" data-name="." transform="translate(25.966 8)" fill="#fff" font-size="9" font-family="TimesNewRomanPSMT, Times New Roman"><tspan x="0" y="0">.</tspan></text>
        <text id="_20" data-name="20" transform="translate(28.574 11)" fill="#fff" font-size="12" font-family="TimesNewRomanPSMT, Times New Roman"><tspan x="0" y="0">20</tspan></text>
        <text id="_20-2" data-name="20" transform="translate(43.264 11)" fill="#fff" font-size="12" font-family="TimesNewRomanPSMT, Times New Roman"><tspan x="0" y="0">20</tspan></text>
      </g>
    </g>
  </g>
</svg>
