<svg width="211" height="212" xmlns="http://www.w3.org/2000/svg"><g transform="translate(4 4)" fill="none" fill-rule="evenodd"><ellipse stroke="#262525" stroke-width="7.2" cx="101.51" cy="102.132" rx="101.51" ry="102.132"/><path d="M102.298 121c1.105 0 2-.995 2-2.222V83.222a2.269 2.269 0 00-.574-1.542 1.863 1.863 0 00-1.426-.68c-1.104 0-2 .995-2 2.222v35.556c0 1.227.896 2.222 2 2.222zm17 21h32v22h-32zm32-14v-17.684c-.016-13.423-10.633-24.3-23.737-24.316h-17.263v30.947h4.316c3.575 0 6.474 2.97 6.474 6.632V128h30.21zm3.337 8.424c.424-.37.664-.885.663-1.424 0-1.105-.97-2-2.166-2h-34.667c-1.197 0-2.167.895-2.167 2 0 1.104.97 2 2.167 2h34.667a2.165 2.165 0 001.503-.576zM77.035 117h17.263V86.053h-4.316c-3.575 0-6.473-2.97-6.473-6.632V75h-30.21v17.684c.015 13.423 10.633 24.3 23.736 24.316zm9.097-46c1.196 0 2.166-.895 2.166-2 0-1.104-.97-2-2.166-2H51.465a2.15 2.15 0 00-1.501.576c-.426.37-.667.885-.666 1.424 0 1.105.97 2 2.167 2h34.667zM53.298 40h32v22h-32z" fill="#262525" fill-rule="nonzero"/></g></svg>