<?xml version="1.0" encoding="UTF-8"?>
<svg width="211px" height="212px" viewBox="0 0 211 212" version="1.1" xmlns="http://www.w3.org/2000/svg" xmlns:xlink="http://www.w3.org/1999/xlink">
    <!-- Generator: Sketch 60.1 (88133) - https://sketch.com -->
    <title>Group 18</title>
    <desc>Created with Sketch.</desc>
    <defs>
        <polygon id="path-1" points="0 0.13609726 144.886647 0.13609726 144.886647 62.9140151 0 62.9140151"></polygon>
    </defs>
    <g id="HFP---Validated" stroke="none" stroke-width="1" fill="none" fill-rule="evenodd">
        <g id="Proposta-Final-Copy-2" transform="translate(-446.000000, -2537.000000)">
            <g id="Group-18" transform="translate(450.000000, 2541.000000)">
                <ellipse id="Oval-Copy-5" stroke="#262525" stroke-width="7.2" cx="101.50974" cy="102.131783" rx="101.50974" ry="102.131783"></ellipse>
                <g id="Group-10" transform="translate(29.000000, 65.000000)">
                    <g id="Group-3">
                        <mask id="mask-2" fill="white">
                            <use xlink:href="#path-1"></use>
                        </mask>
                        <g id="Clip-2"></g>
                        <path d="M132.812721,43.5980425 L12.073753,43.5980425 C10.7385446,43.5980425 9.6593879,42.5187 9.6593879,41.1836178 C9.6593879,39.8482479 10.7388323,38.7691932 12.073753,38.7691932 L132.812721,38.7691932 C134.148505,38.7691932 135.227662,39.8485356 135.227662,41.1836178 C135.227662,42.5187 134.148505,43.5980425 132.812721,43.5980425 M132.812721,53.2560288 L12.073753,53.2560288 C10.7385446,53.2560288 9.6593879,52.1766863 9.6593879,50.8416041 C9.6593879,49.5062342 10.7388323,48.4271795 12.073753,48.4271795 L132.812721,48.4271795 C134.148505,48.4271795 135.227662,49.5065219 135.227662,50.8416041 C135.227662,52.176974 134.148505,53.2560288 132.812721,53.2560288 M62.7843383,17.0379329 L82.1027113,17.0379329 C83.4382073,17.0379329 84.5176518,18.1172753 84.5176518,19.4523575 C84.5176518,20.7874397 83.4379196,21.8667822 82.1027113,21.8667822 L62.7843383,21.8667822 C61.4488423,21.8667822 60.3696855,20.7874397 60.3696855,19.4523575 C60.3696855,18.1172753 61.4488423,17.0379329 62.7843383,17.0379329 M137.642314,0.13609726 L7.24444742,0.13609726 C3.25033036,0.13609726 -8.63095238e-05,3.38591918 -8.63095238e-05,7.3796589 L-8.63095238e-05,55.6707411 C-8.63095238e-05,59.6644808 3.25033036,62.9140151 7.24444742,62.9140151 L137.642314,62.9140151 C141.636432,62.9140151 144.886848,59.6641932 144.886848,55.6707411 L144.886848,7.3796589 C144.886848,3.38591918 141.636432,0.13609726 137.642314,0.13609726" id="Fill-1" fill="#262525" mask="url(#mask-2)"></path>
                    </g>
                    <path d="M74.0731916,80.3548215 C71.9404301,79.209519 70.6666667,77.7547142 70.6666667,76.459411 C70.6666667,75.1643957 71.9407081,73.7069997 74.0731916,72.5616972 C75.2165763,71.947587 75.6644229,70.4904789 75.071742,69.3063087 C74.4790612,68.1221384 73.0696372,67.6560135 71.9265305,68.2721391 C68.1046842,70.3237795 66,73.230798 66,76.459411 C66,79.6883119 68.1046842,82.5950425 71.9265305,84.6443797 C74.0592919,85.7899701 75.3330553,87.2470782 75.3330553,88.5423814 C75.3330553,89.8379725 74.0590139,91.2924894 71.9265305,92.4377919 C70.7831457,93.0519021 70.3352991,94.5087223 70.92798,95.6951958 C71.3433014,96.5240862 72.1575425,97 73.0023629,97 C73.3618077,97 73.7326503,96.9130514 74.0734695,96.7270621 C77.8953158,94.677725 80,91.7707065 80,88.5420935 C80,85.3137684 77.8953158,82.406462 74.0731916,80.3548215" id="Fill-4" fill="#262525"></path>
                    <path d="M47.0731916,85.3554773 C44.9404301,84.209932 43.6666667,82.7554724 43.6666667,81.4602203 C43.6666667,80.1649681 44.9407081,78.7079174 47.0731916,77.5623721 C48.2165763,76.9485741 48.6644229,75.4915234 48.071742,74.3073998 C47.4790612,73.1232762 46.0674133,72.6545786 44.9265305,73.2732709 C41.1046842,75.3248305 39,78.2317345 39,81.4602203 C39,84.688994 41.1046842,87.59561 44.9265305,89.6448665 C47.0592919,90.7904118 48.3330553,92.2474625 48.3330553,93.5427146 C48.3330553,94.8382546 47.0590139,96.2927143 44.9265305,97.4379717 C43.7831457,98.0517697 43.3352991,99.5088204 43.92798,100.695247 C44.3433014,101.524105 45.1575425,102 46.0023629,102 C46.3618077,102 46.7326503,101.913055 47.0734695,101.727073 C50.8953158,99.6778164 53,96.7709125 53,93.5424267 C53,90.3139409 50.8950378,87.407037 47.0731916,85.3554773" id="Fill-6" fill="#262525"></path>
                    <path d="M100.073352,85.3554773 C97.9405481,84.209932 96.6667593,82.7554724 96.6667593,81.4602203 C96.6667593,80.1649681 97.9408261,78.7079174 100.073352,77.5623721 C101.216481,76.9485741 101.664615,75.4915234 101.071922,74.3073998 C100.47923,73.1232762 99.0675536,72.6545786 97.9263701,73.2732709 C94.104726,75.3248305 92,78.2317345 92,81.4602203 C92,84.688994 94.104726,87.59561 97.9263701,89.6448665 C100.059452,90.7904118 101.333241,92.2474625 101.333241,93.5427146 C101.333241,94.8382546 100.059174,96.2927143 97.9263701,97.4379717 C96.7832407,98.0517697 96.3353852,99.5088204 96.9280778,100.695247 C97.3434075,101.524105 98.1573868,102 99.002224,102 C99.3616759,102 99.7325258,101.913055 100.07363,101.727073 C103.895552,99.6778164 106,96.7709125 106,93.5424267 C106,90.3139409 103.895552,87.407037 100.073352,85.3554773" id="Fill-8" fill="#262525"></path>
                </g>
            </g>
        </g>
    </g>
</svg>