<?xml version="1.0" encoding="UTF-8"?>
<svg width="211px" height="212px" viewBox="0 0 211 212" version="1.1" xmlns="http://www.w3.org/2000/svg" xmlns:xlink="http://www.w3.org/1999/xlink">
    <!-- Generator: Sketch 60.1 (88133) - https://sketch.com -->
    <title>Group 6</title>
    <desc>Created with Sketch.</desc>
    <defs>
        <polygon id="path-1" points="0.20113157 0.00516338028 13.9278721 0.00516338028 13.9278721 27.175347 0.20113157 27.175347"></polygon>
        <polygon id="path-3" points="0 0.229611549 85.7968648 0.229611549 85.7968648 19.250313 0 19.250313"></polygon>
    </defs>
    <g id="HFP---Validated" stroke="none" stroke-width="1" fill="none" fill-rule="evenodd">
        <g id="Proposta-Final-Copy-2" transform="translate(-1061.000000, -2537.000000)">
            <g id="Group-6" transform="translate(1065.000000, 2541.000000)">
                <ellipse id="Oval-Copy-4" stroke="#262525" stroke-width="7.2" cx="101.50974" cy="102.131783" rx="101.50974" ry="102.131783"></ellipse>
                <g id="Group-16" transform="translate(59.000000, 32.000000)">
                    <g id="Group-15">
                        <polygon id="Fill-1" fill="#262525" points="37.2356111 140.994837 48.560537 140.994837 48.560537 95.804138 37.2356111 95.804138"></polygon>
                        <g id="Group-14" transform="translate(0.000000, 0.392020)">
                            <g id="Group-4" transform="translate(35.833333, 0.000000)">
                                <mask id="mask-2" fill="white">
                                    <use xlink:href="#path-1"></use>
                                </mask>
                                <g id="Clip-3"></g>
                                <path d="M5.68989537,27.175347 C5.27383056,27.175347 4.85099722,27.0800231 4.45364537,26.88024 C3.09994167,26.1982766 2.55726574,24.5515555 3.24088611,23.2007358 L6.71990463,16.329071 L2.94625648,16.329071 C1.99229352,16.329071 1.10760833,15.8353724 0.607932407,15.0255161 C0.108256481,14.2156597 0.0664509259,13.2048287 0.496052778,12.3556513 L5.98691389,1.50977239 C6.67053426,0.158952676 8.32006204,-0.382010704 9.67535833,0.299952676 C11.029062,0.981916056 11.571738,2.62863718 10.8881176,3.9794569 L7.40830278,10.8511217 L11.1827472,10.8511217 C12.1367102,10.8511217 13.0213954,11.3448203 13.5210713,12.1546766 C14.0207472,12.964533 14.0625528,13.9753639 13.6329509,14.8245414 L8.14208981,25.6704203 C7.65913611,26.6248513 6.69283056,27.175347 5.68989537,27.175347" id="Fill-2" fill="#262525" mask="url(#mask-2)"></path>
                            </g>
                            <path d="M51.3252778,101.28451 L34.4712685,101.28451 C18.7038056,101.28451 5.92165741,88.5333439 5.92165741,72.8040989 L5.92165741,45.953727 L79.8740926,45.953727 L79.8740926,72.8037017 C79.8740926,88.5329468 67.0927407,101.28451 51.3252778,101.28451" id="Fill-5" fill="#262525"></path>
                            <path d="M18.2908463,46.8186727 L15.5069944,46.8186727 C13.4039759,46.8186727 11.6991056,45.1179346 11.6991056,43.0200135 L11.6991056,9.12003887 C11.6991056,7.02211775 13.4039759,5.32137972 15.5069944,5.32137972 L18.2908463,5.32137972 C20.3938648,5.32137972 22.0987352,7.02211775 22.0987352,9.12003887 L22.0987352,43.0204107 C22.0987352,45.1183318 20.3938648,46.8186727 18.2908463,46.8186727" id="Fill-7" fill="#262525"></path>
                            <path d="M70.2890343,46.8186727 L67.5051824,46.8186727 C65.4021639,46.8186727 63.6972935,45.1179346 63.6972935,43.0200135 L63.6972935,9.12003887 C63.6972935,7.02211775 65.402562,5.32137972 67.5051824,5.32137972 L70.2890343,5.32137972 C72.3920528,5.32137972 74.0969231,7.02211775 74.0969231,9.12003887 L74.0969231,43.0204107 C74.0969231,45.1183318 72.3920528,46.8186727 70.2890343,46.8186727" id="Fill-9" fill="#262525"></path>
                            <g id="Group-13" transform="translate(0.000000, 35.349296)">
                                <mask id="mask-4" fill="white">
                                    <use xlink:href="#path-3"></use>
                                </mask>
                                <g id="Clip-12"></g>
                                <path d="M83.8941148,19.250313 L1.90187407,19.250313 C0.851559259,19.250313 -7.96296296e-05,18.4011355 -7.96296296e-05,17.3529693 L-7.96296296e-05,2.12695521 C-7.96296296e-05,1.0791862 0.851161111,0.229611549 1.90187407,0.229611549 L83.8949111,0.229611549 C84.9456241,0.229611549 85.7968648,1.07878901 85.7968648,2.12695521 L85.7968648,17.3529693 C85.7968648,18.4015327 84.9452259,19.250313 83.8941148,19.250313" id="Fill-11" fill="#262525" mask="url(#mask-4)"></path>
                            </g>
                        </g>
                    </g>
                </g>
            </g>
        </g>
    </g>
</svg>