<?xml version="1.0" encoding="UTF-8"?>
<svg width="35px" height="34px" viewBox="0 0 35 34" version="1.1" xmlns="http://www.w3.org/2000/svg" xmlns:xlink="http://www.w3.org/1999/xlink">
    <!-- Generator: Sketch 60.1 (88133) - https://sketch.com -->
    <title>facebook</title>
    <desc>Created with Sketch.</desc>
    <g id="HFP---Validated" stroke="none" stroke-width="1" fill="none" fill-rule="evenodd">
        <g id="Proposta-Final-Copy-2" transform="translate(-681.000000, -554.000000)" fill="#FFFFFF" fill-rule="nonzero">
            <g id="Landing-Page" transform="translate(-18.000000, 0.000000)">
                <g id="Text-Center" transform="translate(185.000000, 368.000000)">
                    <g id="Social-Networks" transform="translate(514.000000, 186.000000)">
                        <g id="facebook">
                            <path d="M20.2631579,33.9519532 C19.9266711,33.9867188 19.5889518,34.0187501 19.25,34.0480469 C19.5889518,34.0187501 19.9266711,33.9867188 20.2631579,33.9519532 Z" id="Path"></path>
                            <path d="M20.3567649,32.9732422 C20.2943602,32.9919922 20.2319555,33.0091797 20.1695509,33.0267578 C20.2319555,33.0091797 20.2943602,32.9919922 20.3567649,32.9732422 Z" id="Path"></path>
                            <path d="M19.25,33.9628907 C18.9140332,33.9910157 18.5759634,34.0160157 18.2368421,34.0371094 C18.5759634,34.0160157 18.9140332,33.9910157 19.25,33.9628907 Z" id="Path"></path>
                            <path d="M19.343607,33.9775391 C19.2814049,33.9935548 19.2187977,34.0083985 19.156393,34.022461 C19.2187977,34.0083985 19.2814049,33.9935548 19.343607,33.9775391 Z" id="Path"></path>
                            <path d="M20.3567649,32.9716797 C20.2945406,32.9908203 20.2320457,33.009961 20.1695509,33.0283203 C20.2320457,33.009961 20.2945406,32.9908203 20.3567649,32.9716797 Z" id="Path"></path>
                            <path d="M21.3699228,32.9697265 C21.3075181,32.9904296 21.2451135,33.0099609 21.1827088,33.0302734 C21.2451135,33.0099609 21.3075181,32.9904296 21.3699228,32.9697265 Z" id="Path"></path>
                            <path d="M21.3699228,32.9691406 C21.3077234,32.9898437 21.245216,33.0109375 21.1827088,33.0308593 C21.245216,33.0109375 21.3077234,32.9902343 21.3699228,32.9691406 Z" id="Path"></path>
                            <path d="M21.3699228,32.9716797 C21.3079045,32.991211 21.2453067,33.0095703 21.1827088,33.0283203 C21.2453067,33.0095703 21.3079045,32.991211 21.3699228,32.9716797 Z" id="Path"></path>
                            <path d="M18.3304491,33.9847657 C18.2681047,33.9960938 18.2057602,34.0062501 18.1432351,34.0152344 C18.2057602,34.0062501 18.2681047,33.9960938 18.3304491,33.9847657 Z" id="Path"></path>
                            <path d="M34.4473684,17 C34.4473684,7.61259462 26.7346081,0 17.2236842,0 C7.71276034,0 0,7.61259462 0,17 C0,26.3874054 7.71276034,34 17.2236842,34 C17.324867,34 17.4255243,33.9979248 17.5264443,33.996109 L17.5264443,20.7623291 L13.8260434,20.7623291 L13.8260434,16.5058441 L17.5264443,16.5058441 L17.5264443,13.3735962 C17.5264443,9.7409668 19.7732289,7.76382443 23.0562834,7.76382443 C24.6284282,7.76382443 25.9798104,7.8795166 26.3737664,7.9311371 L26.3737664,11.7277069 L24.109899,11.7277069 C22.3238249,11.7277069 21.9779635,12.565567 21.9779635,13.7948608 L21.9779635,16.5058441 L26.2486677,16.5058441 L25.6920307,20.7623291 L21.9779635,20.7623291 L21.9779635,33.3432007 C29.1771881,31.3061371 34.4473684,24.759674 34.4473684,17 Z" id="Path"></path>
                            <path d="M18.2368421,33.9800782 C17.9004382,33.9972656 17.5625545,34.0109375 17.2236842,34.0199219 C17.5625545,34.0109375 17.9004382,33.9972656 18.2368421,33.9800782 Z" id="Path"></path>
                            <path d="M18.2368421,33.9947266 C17.8997437,33.999414 17.561714,34.0029297 17.2236842,34.0052734 C17.561714,34.0029297 17.8997437,33.999414 18.2368421,33.9947266 Z" id="Path"></path>
                        </g>
                    </g>
                </g>
            </g>
        </g>
    </g>
</svg>