<?xml version="1.0" encoding="UTF-8"?>
<svg width="35px" height="34px" viewBox="0 0 35 34" version="1.1" xmlns="http://www.w3.org/2000/svg" xmlns:xlink="http://www.w3.org/1999/xlink">
    <!-- Generator: Sketch 60.1 (88133) - https://sketch.com -->
    <title>instagram</title>
    <desc>Created with Sketch.</desc>
    <g id="HFP---Validated" stroke="none" stroke-width="1" fill="none" fill-rule="evenodd">
        <g id="Proposta-Final-Copy-2" transform="translate(-723.000000, -554.000000)" fill="#FFFFFF" fill-rule="nonzero">
            <g id="Landing-Page" transform="translate(-18.000000, 0.000000)">
                <g id="Text-Center" transform="translate(185.000000, 368.000000)">
                    <g id="Social-Networks" transform="translate(514.000000, 186.000000)">
                        <g id="instagram" transform="translate(42.552632, 0.000000)">
                            <path d="M20.2631579,17 C20.2631579,18.6568878 18.9023731,20 17.2236842,20 C15.5449953,20 14.1842105,18.6568878 14.1842105,17 C14.1842105,15.3431122 15.5449953,14 17.2236842,14 C18.9023731,14 20.2631579,15.3431122 20.2631579,17 Z" id="Path"></path>
                            <path d="M24.9309287,11.244818 C24.7725093,10.8211108 24.5197741,10.4375962 24.1913758,10.122798 C23.8724354,9.79866457 23.4841373,9.54921158 23.0545923,9.39284963 C22.7062275,9.25930668 22.182892,9.1003517 21.2189775,9.05704747 C20.1762473,9.01011298 19.8636121,9 17.2238156,9 C14.5837563,9 14.2711211,9.00985369 13.2286537,9.05678818 C12.2647391,9.1003517 11.7411409,9.25930668 11.3930388,9.39284963 C10.9634939,9.54921158 10.574933,9.79866457 10.2562554,10.122798 C9.92785707,10.4375962 9.6751218,10.8208515 9.51643976,11.244818 C9.38113966,11.5886586 9.22009317,12.1054568 9.17621915,13.056853 C9.1286671,14.0857819 9.11842105,14.3943568 9.11842105,17.0001296 C9.11842105,19.6056432 9.1286671,19.9142181 9.17621915,20.9434063 C9.22009317,21.8948025 9.38113966,22.4113414 9.51643976,22.7551821 C9.6751218,23.1791485 9.92759437,23.5624038 10.2559927,23.877202 C10.574933,24.2013354 10.9632311,24.4507885 11.392776,24.6071504 C11.7411409,24.7409526 12.2647391,24.8999076 13.2286537,24.9432118 C14.2711211,24.9901464 14.5834936,25 17.2235529,25 C19.8638748,25 20.17651,24.9901464 21.2187148,24.9432118 C22.1826293,24.8999076 22.7062275,24.7409526 23.0545923,24.6071504 C23.9168348,24.2788681 24.5983269,23.6062266 24.9309287,22.7551821 C25.0662288,22.4113414 25.2272753,21.8948025 25.271412,20.9434063 C25.318964,19.9142181 25.3289474,19.6056432 25.3289474,17.0001296 C25.3289474,14.3943568 25.318964,14.0857819 25.271412,13.056853 C25.227538,12.1054568 25.0664915,11.5886586 24.9309287,11.244818 L24.9309287,11.244818 Z M17.2238156,22.0107126 C14.4198199,22.0107126 12.1467785,19.7674505 12.1467785,16.9998704 C12.1467785,14.2322902 14.4198199,11.9890281 17.2238156,11.9890281 C20.0275486,11.9890281 22.30059,14.2322902 22.30059,16.9998704 C22.30059,19.7674505 20.0275486,22.0107126 17.2238156,22.0107126 Z M22.501307,12.9619468 C21.8460867,12.9619468 21.3148697,12.4376287 21.3148697,11.7909178 C21.3148697,11.1442069 21.8460867,10.6198888 22.501307,10.6198888 C23.1565272,10.6198888 23.6877442,11.1442069 23.6877442,11.7909178 C23.6874815,12.4376287 23.1565272,12.9619468 22.501307,12.9619468 Z" id="Shape"></path>
                            <path d="M17.2236842,0 C7.71276034,0 0,7.61259462 0,17 C0,26.3874054 7.71276034,34 17.2236842,34 C26.7346081,34 34.4473684,26.3874054 34.4473684,17 C34.4473684,7.61259462 26.7346081,0 17.2236842,0 Z M27.0541882,21.0245819 C27.0063563,22.0637359 26.8389447,22.7731934 26.594529,23.3941955 C26.0807304,24.7054596 25.0305314,25.7420196 23.7020139,26.2491455 C23.0731034,26.4903869 22.3540483,26.655365 21.301484,26.7028351 C20.2468172,26.7503052 19.9098914,26.7617187 17.223947,26.7617187 C14.5377398,26.7617187 14.2010769,26.7503052 13.1461473,26.7028351 C12.093583,26.655365 11.3745278,26.4903869 10.7456173,26.2491455 C10.0854322,26.0040131 9.48779637,25.6198426 8.99370874,25.1230927 C8.49068553,24.6356812 8.10146007,24.0455475 7.85310222,23.3941955 C7.60868656,22.7734527 7.44127491,22.0637359 7.39344306,21.0248413 C7.34482275,19.9836121 7.33352179,19.651062 7.33352179,17 C7.33352179,14.348938 7.34482275,14.0163879 7.39318026,12.9754181 C7.44101211,11.9362641 7.60816091,11.2268066 7.85257662,10.6058045 C8.10093448,9.95445253 8.49042267,9.36431885 8.99370874,8.87690733 C9.48753357,8.38015744 10.0854322,7.99598692 10.7453545,7.75085449 C11.3745278,7.50961307 12.0933202,7.34463498 13.1461473,7.29716493 C14.2008141,7.24969482 14.5377398,7.23828125 17.2236842,7.23828125 C19.9096286,7.23828125 20.2465544,7.24969482 21.3012212,7.29742432 C22.3540483,7.34463498 23.0728406,7.50961307 23.7020139,7.75059511 C24.3619363,7.99572754 24.9598349,8.38015744 25.4539225,8.87690733 C25.9569458,9.36457823 26.3464339,9.95445253 26.594529,10.6058045 C26.8392075,11.2268066 27.0063563,11.9362641 27.054451,12.9754181 C27.1025457,14.0163879 27.1138466,14.348938 27.1138466,17 C27.1138466,19.651062 27.1025457,19.9836121 27.0541882,21.0245819 L27.0541882,21.0245819 Z" id="Shape"></path>
                        </g>
                    </g>
                </g>
            </g>
        </g>
    </g>
</svg>