<svg id="Layer_1" data-name="Layer 1" xmlns="http://www.w3.org/2000/svg" viewBox="0 0 169 95"><defs><style>.cls-1,.cls-2{fill:#fff;}.cls-1{fill-rule:evenodd;}</style></defs><title>LandingPage</title><path class="cls-1" d="M155.18,79.82c-1.27.37-1.59-2-4-.83a11,11,0,0,1-5.35,1.31A6.6,6.6,0,0,1,141.74,79a3.91,3.91,0,0,1-1.69-3.26A4.25,4.25,0,0,1,141,73a9.41,9.41,0,0,1,6.84-2.48c4.81.09,4.31-1.43,4.07-1.79a2.43,2.43,0,0,0-1-.85,5.33,5.33,0,0,0-1.54-.39,16.29,16.29,0,0,0-1.88-.1,15.59,15.59,0,0,0-2.66.25,23.06,23.06,0,0,0-3,.72h-.16V65.92c.59-.12,1.44-.26,2.56-.42a24.6,24.6,0,0,1,3.29-.23,18.63,18.63,0,0,1,3.3.26,7.24,7.24,0,0,1,2.44.84,4.09,4.09,0,0,1,1.54,1.52,4.71,4.71,0,0,1,.53,2.32Zm-2.88-3.44S152.76,74,152,73c-.4-.56-1.75-.46-3-.37a21.84,21.84,0,0,0-2.95.37,5.33,5.33,0,0,0-2.11.92,2,2,0,0,0-.8,1.7,2.1,2.1,0,0,0,.93,1.86,5.23,5.23,0,0,0,2.84.61,8.15,8.15,0,0,0,2.91-.49A14.26,14.26,0,0,0,152.3,76.38Z"/><path class="cls-1" d="M44.85,73.27c-8.25,0-10.29-.08-10.29-.08a3.12,3.12,0,0,0,1.6,2.58,8.64,8.64,0,0,0,4.39.9,12.06,12.06,0,0,0,3.55-.53c1.15-.35,3.36-1.12,3.36-1.12v3.69a26,26,0,0,1-3.69.91,23.87,23.87,0,0,1-3.84.28c-3.63,0-6.4-.64-8.33-1.94a6.28,6.28,0,0,1-2.89-5.54,6.67,6.67,0,0,1,2.73-5.62A12.17,12.17,0,0,1,39,64.71c2.94,0,5.14.59,6.62,1.78s1.94,2.76,1.94,5C47.52,71.47,47.92,73.27,44.85,73.27Zm-2.8-2.78a2.88,2.88,0,0,0-.9-2.17,2.54,2.54,0,0,0-2.1-.73,5,5,0,0,0-2.74.69,2.74,2.74,0,0,0-1.21,2.21Z"/><path class="cls-1" d="M78.44,79.66a18.81,18.81,0,0,1-2,.29,23,23,0,0,1-2.55.12,9.23,9.23,0,0,1-5-1.09,4.1,4.1,0,0,1-1.64-3.72V61.32A9.12,9.12,0,0,1,72,64.92c1.19,2,6.55.67,6.55.67l-.08,3.7H73v4.35c0,.5,0,.94,0,1.31a2.07,2.07,0,0,0,.26,1,1.58,1.58,0,0,0,.78.72,4.34,4.34,0,0,0,1.67.25,6.18,6.18,0,0,0,1.18-.15,5.51,5.51,0,0,0,1-.28h.48Z"/><path class="cls-1" d="M93.22,69.81h-.51a6,6,0,0,0-1.19-.15c-.55,0-1,0-1.37,0a15.67,15.67,0,0,0-2.18.13,14.65,14.65,0,0,0-2,.43v9.62H80.14l0-14.36c4.28-.64,5.81,2.11,5.81,2.11a12.51,12.51,0,0,1,3.32-1.73,8.93,8.93,0,0,1,2.61-.43h.69l.67,0Z"/><path class="cls-1" d="M113.35,72.61a6.72,6.72,0,0,1-2.61,5.59c-1.72,1.36-4.15,2-7.28,2s-5.56-.67-7.29-2a7.32,7.32,0,0,1,0-11.19,11.62,11.62,0,0,1,7.27-2c3.15,0,5.59.68,7.3,2A6.74,6.74,0,0,1,113.35,72.61Zm-7.12,3.49a3.37,3.37,0,0,0,.83-1.31,6.22,6.22,0,0,0,.29-2.15,6.5,6.5,0,0,0-.29-2.12,3.45,3.45,0,0,0-.8-1.37,2.75,2.75,0,0,0-1.24-.74,5.21,5.21,0,0,0-1.56-.22,5.69,5.69,0,0,0-1.49.18,3.21,3.21,0,0,0-1.24.71,3.56,3.56,0,0,0-.85,1.37,8,8,0,0,0,0,4.23,3.31,3.31,0,0,0,.8,1.39,3.14,3.14,0,0,0,1.22.72,5.85,5.85,0,0,0,3.14,0A2.74,2.74,0,0,0,106.23,76.1Z"/><path class="cls-1" d="M131.47,65.62,124.21,79.9h-3l-8.59-14.28h3.28L122.8,77s3.39-6.94,5.09-10.51C128.43,65.36,131.47,65.62,131.47,65.62Z"/><path class="cls-1" d="M138.92,79.87l-2.66,0V60a2.37,2.37,0,0,1,2.52,1.9C139.92,68.51,138.92,79.87,138.92,79.87Z"/><path class="cls-1" d="M168,68.24h-.16a10.43,10.43,0,0,0-1.32-.18c-.42,0-.91-.06-1.49-.06a7.55,7.55,0,0,0-2.7.49A11.42,11.42,0,0,0,160,69.67l-.17,10.23h-3s-.64-13.69-.12-14.3c.74-.84,3.14,2.13,3.14,2.13A15.73,15.73,0,0,1,163,66.1a8.51,8.51,0,0,1,2.81-.48,10.54,10.54,0,0,1,1.14,0c.23,0,.59,0,1.06.11Z"/><path class="cls-1" d="M132.5,65.33a.67.67,0,0,1-.67-.66V62.92a.67.67,0,0,1,.67-.66h1.33a.67.67,0,0,1,.67.66v1.75a.67.67,0,0,1-.67.66Z"/><path class="cls-1" d="M17.14,73.88c-8.25,0-10.29-.08-10.29-.08a3.13,3.13,0,0,0,1.61,2.58,8.57,8.57,0,0,0,4.38.9,12.06,12.06,0,0,0,3.55-.53c1.15-.35,3.36-1.12,3.36-1.12v3.69a25.69,25.69,0,0,1-3.69.91,23.87,23.87,0,0,1-3.84.28q-5.43,0-8.33-1.94A6.28,6.28,0,0,1,1,73a6.67,6.67,0,0,1,2.73-5.62,12.17,12.17,0,0,1,7.52-2.09c2.94,0,5.14.59,6.62,1.78s1.94,2.76,1.94,5C19.81,72.08,20.22,73.88,17.14,73.88Zm-2.8-2.78a2.81,2.81,0,0,0-.9-2.17,2.52,2.52,0,0,0-2.09-.73,5,5,0,0,0-2.75.69A2.74,2.74,0,0,0,7.39,71.1Z"/><path class="cls-2" d="M59.62,80.17a19.23,19.23,0,0,1-4.32-.45,10.73,10.73,0,0,1-3.4-1.38A6.53,6.53,0,0,1,49.69,76a6.72,6.72,0,0,1-.79-3.33,6.82,6.82,0,0,1,.84-3.46,7,7,0,0,1,2.36-2.42,10.79,10.79,0,0,1,3.37-1.33,18.5,18.5,0,0,1,4-.42h5.25v3.34h-5a4.86,4.86,0,0,0-3.57,1.13,4.17,4.17,0,0,0-1.23,3.17,3.88,3.88,0,0,0,1.27,3.15,5.46,5.46,0,0,0,3.63,1.07,9,9,0,0,0,2-.19,7,7,0,0,0,1.46-.47,6.7,6.7,0,0,0,1-.54l.19-.13v4c-.48.13-1,.25-1.46.34A15.83,15.83,0,0,1,59.62,80.17Z"/><path class="cls-1" d="M132,79.87l0-14.2a2.47,2.47,0,0,1,2.56,2A66.91,66.91,0,0,1,135,79.87Z"/><path class="cls-1" d="M28.89,80.3c-.29,0-3.94.34-5.94-1.08a4.2,4.2,0,0,1-1.64-3.72V61.56s4.68-1.76,5,3.35c0,.41.67,9.48.67,9.48a14.59,14.59,0,0,0,.35,1.82,1.65,1.65,0,0,0,.78.71,2.73,2.73,0,0,0,.74.2Z"/><path class="cls-1" d="M88,87.88l-1.61,6.24.8-.1a17.41,17.41,0,0,1,1.24-3.69c.18-.39,1.06-2.2,1.73-2.2.19,0,.35.13.35.49,0,.75-.52,2.06-1.3,2.06a1.64,1.64,0,0,1-.56-.11l-.08.23a1.7,1.7,0,0,0,.54.08,2.47,2.47,0,0,0,2.31-2.33.81.81,0,0,0-.84-.87,1.77,1.77,0,0,0-1.36.87A9,9,0,0,0,88,90.7l.88-3Z"/><path class="cls-1" d="M94.89,87.68l-.53,0a2.63,2.63,0,0,0-2.59,2.41.8.8,0,0,0,.86.84,2,2,0,0,0,1.59-1.07l.55-1a5.77,5.77,0,0,0-.4,1.51c0,.3.19.53.6.53a2.52,2.52,0,0,0,1.43-.78L96.32,90c-.45.36-.75.57-1,.57,0,0-.2,0-.2-.21a1.73,1.73,0,0,1,.12-.47l.2-.61c.13-.37.46-1.33.56-1.59h-.91a14.83,14.83,0,0,1-.83,1.64c-.2.36-.68,1.17-1.17,1.17s-.45-.41-.45-.58c0-.74.7-2,1.54-2a1.43,1.43,0,0,1,.51.11Z"/><path class="cls-1" d="M97.26,87.88l-.81,3,.81,0c.66-1.6,1.54-2.74,1.93-2.74.15,0,.15.2.15.23a4.27,4.27,0,0,1-.17.71l.73-.13a2.15,2.15,0,0,0,.11-.68.48.48,0,0,0-.48-.54c-.54,0-1.1.57-1.94,2l.6-2Z"/><path class="cls-1" d="M102.72,90a2.15,2.15,0,0,1-1.21.47.51.51,0,0,1-.58-.55c0-.82.59-2.07,1.39-2.07a1,1,0,0,1,.54.23,1.73,1.73,0,0,0,.29.23c.07,0,.25-.33.25-.45s-.49-.24-.86-.24A2.63,2.63,0,0,0,100,90.07a.83.83,0,0,0,1,.85,3.27,3.27,0,0,0,1.88-.74Z"/><path class="cls-1" d="M106.32,90a2.41,2.41,0,0,1-1.39.6c-.37,0-.7-.14-.69-.6.76-.17,2.58-.62,2.58-1.62,0-.27-.21-.7-.95-.7a2.42,2.42,0,0,0-2.45,2.22c0,.79.62,1,1.18,1a3,3,0,0,0,1.81-.78Zm-2.06-.21c.1-.63.74-1.89,1.52-1.89.34,0,.43.22.43.35S106.2,89.22,104.26,89.77Z"/><path class="cls-1" d="M109.44,86a.56.56,0,1,0-.55.56A.55.55,0,0,0,109.44,86ZM108,87.75a10.5,10.5,0,0,0-.63,2.5.56.56,0,0,0,.57.63c.26,0,.62-.08,1.39-.74V90c-.75.56-.79.58-1,.58a.2.2,0,0,1-.2-.21,2.14,2.14,0,0,1,.12-.54l.65-2.17Z"/><path class="cls-1" d="M110.45,87.88l-.81,3,.81,0c.66-1.6,1.54-2.74,1.93-2.74.16,0,.16.2.16.23a4.35,4.35,0,0,1-.18.71l.73-.13a2.15,2.15,0,0,0,.11-.68.48.48,0,0,0-.48-.54c-.54,0-1.1.57-1.94,2l.6-2Z"/><path class="cls-1" d="M114.53,90.9a2.1,2.1,0,0,0,2.15-2,1.3,1.3,0,0,0-1.38-1.28,2.2,2.2,0,0,0-2.14,2A1.25,1.25,0,0,0,114.53,90.9Zm1.31-2.5c0,.67-.44,2.31-1.28,2.31a.54.54,0,0,1-.56-.57c0-.45.46-2.29,1.37-2.29C115.6,87.85,115.84,88,115.84,88.4Z"/><path class="cls-1" d="M117.71,89.41c.49-.54.86-.92,1.19-1.26a5.14,5.14,0,0,1,.19,1.29c0,.39,0,1.24-.59,1.24,0,0-.17,0-.45-.28a.83.83,0,0,0-.56-.33.3.3,0,0,0-.3.31c0,.23.23.54.94.54,1.1,0,1.84-.59,1.84-1.45a2,2,0,0,0-.85-1.49c.21-.12.59-.36.59-.66a.27.27,0,0,0-.28-.27c-.3,0-.6.37-.56.88-.42.42-.51.52-1.28,1.36Z"/><path class="cls-1" d="M126.51,87.76a4.55,4.55,0,0,0-.77-.08A2.63,2.63,0,0,0,123.16,90a.85.85,0,0,0,.91.9c.87,0,1.46-.73,2-1.72a3.86,3.86,0,0,0-.3,1.22c0,.46.37.51.57.51a2.15,2.15,0,0,0,1.39-.75l-.07-.16a1.8,1.8,0,0,1-1,.62.22.22,0,0,1-.22-.23,1.28,1.28,0,0,1,.07-.34l2.61-8.52-1,.32Zm-.11.33c-.65,1.71-1.43,2.44-1.87,2.44a.52.52,0,0,1-.46-.57c0-.93.84-2.1,1.63-2.1A1.3,1.3,0,0,1,126.4,88.09Z"/><path class="cls-1" d="M129.3,90.9a2.1,2.1,0,0,0,2.15-2,1.3,1.3,0,0,0-1.38-1.28,2.2,2.2,0,0,0-2.14,2A1.25,1.25,0,0,0,129.3,90.9Zm1.31-2.5c0,.67-.44,2.31-1.28,2.31a.54.54,0,0,1-.56-.57c0-.45.46-2.29,1.37-2.29C130.37,87.85,130.61,88,130.61,88.4Z"/><path class="cls-1" d="M137.62,87.68l-.53,0a2.63,2.63,0,0,0-2.59,2.41.81.81,0,0,0,.87.84A2,2,0,0,0,137,89.83l.56-1a5.4,5.4,0,0,0-.4,1.51c0,.3.18.53.6.53a2.46,2.46,0,0,0,1.42-.78l-.07-.12c-.46.36-.76.57-1,.57,0,0-.2,0-.2-.21a1.52,1.52,0,0,1,.13-.47l.2-.61c.13-.37.45-1.33.55-1.59h-.91a14.39,14.39,0,0,1-.82,1.64c-.2.36-.69,1.17-1.17,1.17s-.46-.41-.46-.58c0-.74.7-2,1.54-2a1.38,1.38,0,0,1,.51.11Z"/><path class="cls-1" d="M140.07,87.89l-.84,3,.84,0a8.33,8.33,0,0,1,1.4-2.4c.07-.08.32-.38.55-.38s.22.25.22.28a10,10,0,0,1-.55,2l-.17.52h.82a6.67,6.67,0,0,1,.94-1.95c.2-.31.58-.85.92-.85a.23.23,0,0,1,.23.25,2,2,0,0,1-.19.67l-.29.8a1.73,1.73,0,0,0-.13.6c0,.16,0,.58.62.58a2.76,2.76,0,0,0,1.51-.81l-.1-.11a2.34,2.34,0,0,1-1,.61.18.18,0,0,1-.19-.17,2.12,2.12,0,0,1,.13-.51l.26-.69a3,3,0,0,0,.22-1,.64.64,0,0,0-.69-.63c-.79,0-1.36.88-1.83,1.64a2.84,2.84,0,0,0,.25-1c0-.06,0-.67-.57-.67-.94,0-1.64,1.24-2,2l.6-1.94Z"/><path class="cls-1" d="M148.77,81.75l-2.3,7.62a2.28,2.28,0,0,0-.12.67c0,.56.4.88,1.09.88A2.67,2.67,0,0,0,150,88.53a.82.82,0,0,0-.88-.87,2.21,2.21,0,0,0-1.65.91l2.29-7.1Zm.3,6.85c0,.42-.55,2.13-1.49,2.13a.5.5,0,0,1-.52-.57c0-.89.86-2.1,1.54-2.1A.49.49,0,0,1,149.07,88.6Z"/><path class="cls-1" d="M152.69,86a.56.56,0,1,0-.55.56A.55.55,0,0,0,152.69,86Zm-1.45,1.8a10.5,10.5,0,0,0-.63,2.5.55.55,0,0,0,.57.63c.26,0,.61-.08,1.38-.74V90c-.74.56-.78.58-.95.58a.19.19,0,0,1-.2-.21,2.5,2.5,0,0,1,.11-.54l.66-2.17Z"/><path class="cls-1" d="M155.9,90a2.45,2.45,0,0,1-1.4.6c-.37,0-.7-.14-.68-.6.75-.17,2.58-.62,2.58-1.62,0-.27-.22-.7-1-.7A2.42,2.42,0,0,0,153,89.88a1,1,0,0,0,1.18,1,3,3,0,0,0,1.81-.78Zm-2.07-.21c.1-.63.74-1.89,1.53-1.89.34,0,.42.22.42.35S155.77,89.22,153.83,89.77Z"/><path class="cls-1" d="M157.44,87.85l-.82,3,.84,0c.19-.45,1.2-2.77,2-2.77a.23.23,0,0,1,.24.26,2.13,2.13,0,0,1-.11.5l-.29.85a3.56,3.56,0,0,0-.13.68c0,.42.3.57.63.57a2.24,2.24,0,0,0,1.45-.81l-.11-.1c-.41.36-.7.62-.94.62a.19.19,0,0,1-.2-.22,1.63,1.63,0,0,1,.1-.41l.29-.87a3.19,3.19,0,0,0,.18-.8.64.64,0,0,0-.68-.65c-.72,0-1.36.64-2.11,2.13l.65-2.12Z"/><path class="cls-1" d="M163.67,90a2.47,2.47,0,0,1-1,.61.18.18,0,0,1-.17-.2c0-.27.64-2.15.77-2.56l.2-.66h.91l0-.18h-.91l.77-2.54-.94.22L162.63,87h-.42l-.07.18h.44l-.76,2.48a2.48,2.48,0,0,0-.11.66.56.56,0,0,0,.58.59,2.38,2.38,0,0,0,1.46-.82Z"/><path class="cls-1" d="M167.24,90a2.45,2.45,0,0,1-1.4.6c-.37,0-.7-.14-.68-.6.75-.17,2.57-.62,2.57-1.62,0-.27-.21-.7-.95-.7a2.42,2.42,0,0,0-2.45,2.22,1,1,0,0,0,1.18,1,3,3,0,0,0,1.81-.78Zm-2.07-.21c.1-.63.74-1.89,1.52-1.89.35,0,.43.22.43.35S167.11,89.22,165.17,89.77Z"/><path class="cls-2" d="M66.2,37.27c7.92-1.73,9.63-1.54,16.76.3a17,17,0,0,0-11.48-4.41c-4.57-.29-7.6-2.09-7.53-4.19.1-2.67,1.42-4,3.53-4,6.37,0,8.47,8.86,13.12,6.7-1.14-8.9-10.34-9-16.61-9,.21-1.2.44-2.37.75-3.55a21.49,21.49,0,0,1,4.14-.72c.27-1-3.14-3.92-1.21-6.33a2.52,2.52,0,0,1,.57-.43c5-1.71,5.59,9.9,8.76,9.33C80,19,69.88,10.31,72.4,7,72.88,6,76,5.65,77.34,8.54a7.62,7.62,0,0,0,1.18-5.45,26.37,26.37,0,0,1,9-2.21s-.2.88-.27,1.34c-8.47,4-7.67,14.9-5.48,22.92,1.87-.59,1.13-5.18,1-6.42-.31-3-1.41-7.63,1.35-9.84,3.57-2.85,7.14.58,7,3.62-.51,2.62-1.2,3.81-4,4.16a9.3,9.3,0,0,0-.74,5c2.9-1.35,6.29-6.77,9.91-4,1.56,4.8-7.14,6.94-10.15,7.68-3.8,4.57.07,12.13,5,14.27-5.6-9-2.26-12.23-2.26-12.23,1.8-.28,3.07.5,3.62,3.19,0,0,.8-5.28,3.9-4.52,1.9,2.24-.27,7.82-1.27,11.78-.79,3.09-.83,6.09,1.8,9.15.72-1.45,1.07-2.68,2.57-3.17-1.12-1.17-5-5.69-2.82-7.39,2.24-.69,5.51,2.73,5.51,2.73,2,.13-1.67-7.42-2.75-10.24-2.07-5.43,0-9.24-4.12-16.15-3.16-5.3-8.82-4.61-7.51-8.79C89.35,1,91.58,4,93.4,4.5a14.34,14.34,0,0,0,.2-3.22c4.43,2,4.27,8,4.86,11.66,1.8-2.64,1.75-5.16,4.12-8A34.47,34.47,0,0,1,106,7.54c-2.76,6.54-8.21,9.05-4.78,18.1,1.14-4.57.85-10.66,7.16-10.11,4.26,7.82-6.69,10.56-5,13.44l2.84,9.76c5.51-4.86,5.39-14.11,4.34-22.22l1.46-.39c10.27,25.16-15,39.23-25.84,35.51l-2.39-.83,4.77-1.22a38.16,38.16,0,0,0,4.34-1.25c-1.56-4.36-6.29-1.9-9.13-.77a28.45,28.45,0,0,1-4.68,1.53A33,33,0,0,1,74,46.21c2-1.82,3.91-2.54,7.28-2.77,1.74-.12,3.4.43,4.7-.38.25-1.43-7.65-7.05-15.36.09C66.91,39.73,66.68,38.09,66.2,37.27Z"/></svg>