<svg id="Layer_1" data-name="Layer 1" xmlns="http://www.w3.org/2000/svg" viewBox="0 0 50 50"><defs><style>.cls-1{fill:#fff;}</style></defs><title>logoMobileNavBar</title><path class="cls-1" d="M3.14,35.2c7.53-1.65,9.16-1.47,15.94.28a16.25,16.25,0,0,0-10.92-4.2C3.81,31,.93,29.3,1,27.3c.09-2.54,1.35-3.8,3.35-3.8,6.07,0,8.06,8.42,12.49,6.37C15.75,21.4,7,21.34,1,21.3c.19-1.14.41-2.25.71-3.37a19.46,19.46,0,0,1,3.94-.68c.25-.94-3-3.74-1.16-6a2.26,2.26,0,0,1,.55-.41c4.71-1.63,5.32,9.42,8.33,8.87C16.28,17.77,6.64,9.55,9,6.44c.45-1,3.37-1.33,4.69,1.42a7.26,7.26,0,0,0,1.13-5.18A25,25,0,0,1,23.44.58s-.19.84-.25,1.27C15.13,5.66,15.89,16,18,23.66c1.78-.57,1.07-4.93.94-6.11-.3-2.85-1.34-7.26,1.28-9.36,3.4-2.72,6.79.55,6.61,3.44-.48,2.5-1.13,3.63-3.75,4a8.82,8.82,0,0,0-.71,4.72c2.76-1.28,6-6.45,9.43-3.8,1.48,4.57-6.79,6.61-9.66,7.31-3.61,4.34.07,11.54,4.76,13.58-5.32-8.56-2.15-11.64-2.15-11.64,1.72-.27,2.92.48,3.45,3,0,0,.76-5,3.7-4.3,1.81,2.13-.25,7.44-1.21,11.21-.74,2.94-.78,5.8,1.71,8.7.69-1.37,1-2.55,2.45-3-1.06-1.1-4.77-5.41-2.68-7C34.28,33.7,37.4,37,37.4,37c1.91.13-1.6-7.05-2.62-9.74-2-5.16,0-8.79-3.92-15.36-3-5-8.4-4.38-7.15-8.36C25.15.72,27.28,3.56,29,4A14.24,14.24,0,0,0,29.21,1c4.21,1.89,4.06,7.63,4.61,11.09,1.72-2.51,1.67-4.91,3.93-7.65A33.78,33.78,0,0,1,41,6.91c-2.62,6.23-7.81,8.62-4.55,17.22,1.09-4.35.81-10.14,6.81-9.62,4.06,7.45-6.36,10-4.73,12.79l2.71,9.29c5.24-4.63,5.13-13.43,4.12-21.15l1.39-.36C56.48,39,32.41,52.4,22.14,48.85l-2.28-.78L24.4,46.9a34.56,34.56,0,0,0,4.13-1.19c-1.49-4.14-6-1.8-8.69-.73a26.59,26.59,0,0,1-4.45,1.45,29.82,29.82,0,0,1-4.83-2.73c1.94-1.73,3.72-2.42,6.92-2.64,1.66-.11,3.24.41,4.47-.36.24-1.36-7.27-6.7-14.61.09C3.81,37.53,3.6,36,3.14,35.2Z"/></svg>