<svg id="Layer_1" data-name="Layer 1" xmlns="http://www.w3.org/2000/svg" viewBox="0 0 84.06 13.19"><defs><style>.cls-1,.cls-2{fill:#fff;}.cls-1{fill-rule:evenodd;}</style></defs><title>logoMobileNavBar3</title><path class="cls-1" d="M79.07,10.32c-.49.14-.62-.79-1.54-.33a4.27,4.27,0,0,1-2.09.51,2.53,2.53,0,0,1-1.6-.5,1.52,1.52,0,0,1-.66-1.27,1.64,1.64,0,0,1,.38-1.07,3.71,3.71,0,0,1,2.66-1c1.88,0,1.68-.56,1.59-.7a.94.94,0,0,0-.4-.33,2.39,2.39,0,0,0-.6-.15,5.9,5.9,0,0,0-.74,0,5.75,5.75,0,0,0-1,.1,7.61,7.61,0,0,0-1.17.28H73.8v-1c.23,0,.56-.11,1-.17a9.29,9.29,0,0,1,1.28-.09,7.83,7.83,0,0,1,1.28.1,3,3,0,0,1,1,.33,1.48,1.48,0,0,1,.6.59,1.81,1.81,0,0,1,.21.9ZM78,9a2.3,2.3,0,0,0-.1-1.33c-.16-.22-.68-.18-1.17-.14a8.17,8.17,0,0,0-1.15.14,2.14,2.14,0,0,0-.82.36.78.78,0,0,0-.31.66.81.81,0,0,0,.36.72,2,2,0,0,0,1.11.24A3.15,3.15,0,0,0,77,9.44,5.57,5.57,0,0,0,78,9Z"/><path class="cls-1" d="M36.12,7.77c-3.21,0-4,0-4,0a1.22,1.22,0,0,0,.62,1,3.41,3.41,0,0,0,1.71.35,4.9,4.9,0,0,0,1.38-.2c.45-.14,1.31-.44,1.31-.44V9.89a10,10,0,0,1-1.44.35,9.73,9.73,0,0,1-1.49.11A5.81,5.81,0,0,1,31,9.59a2.43,2.43,0,0,1-1.12-2.15A2.58,2.58,0,0,1,30.9,5.25a4.76,4.76,0,0,1,2.93-.82,4.09,4.09,0,0,1,2.58.7,2.23,2.23,0,0,1,.75,1.94S37.32,7.77,36.12,7.77ZM35,6.68a1.09,1.09,0,0,0-.35-.84,1,1,0,0,0-.81-.29,1.93,1.93,0,0,0-1.07.27,1.06,1.06,0,0,0-.47.86Z"/><path class="cls-1" d="M49.2,10.25c-.24.05-.5.09-.77.12a9.41,9.41,0,0,1-1,0,3.6,3.6,0,0,1-2-.42,1.6,1.6,0,0,1-.64-1.45V3.11a3.57,3.57,0,0,1,1.84,1.41c.46.77,2.55.26,2.55.26l0,1.44H47.09V7.91c0,.19,0,.37,0,.51a.77.77,0,0,0,.1.4.62.62,0,0,0,.3.27,1.61,1.61,0,0,0,.65.1,2.32,2.32,0,0,0,.46-.06A1.9,1.9,0,0,0,49,9h.19Z"/><path class="cls-1" d="M55,6.42h-.2a2,2,0,0,0-.46-.06l-.53,0a7,7,0,0,0-.85,0,5.49,5.49,0,0,0-.8.17V10.3H49.86V4.72a2.09,2.09,0,0,1,2.26.81,5.2,5.2,0,0,1,1.3-.67,3.56,3.56,0,0,1,1-.17H55Z"/><path class="cls-1" d="M62.79,7.51a2.62,2.62,0,0,1-1,2.18,4.52,4.52,0,0,1-2.83.79,4.57,4.57,0,0,1-2.84-.79,2.64,2.64,0,0,1-1-2.18,2.6,2.6,0,0,1,1-2.18,4.49,4.49,0,0,1,2.83-.79,4.41,4.41,0,0,1,2.84.8A2.62,2.62,0,0,1,62.79,7.51ZM60,8.87a1.34,1.34,0,0,0,.32-.51,2.4,2.4,0,0,0,.11-.84,2.53,2.53,0,0,0-.11-.83A1.31,1.31,0,0,0,60,6.16a1.17,1.17,0,0,0-.48-.29,2.37,2.37,0,0,0-.61-.08,2,2,0,0,0-.58.07,1.08,1.08,0,0,0-.48.28,1.27,1.27,0,0,0-.33.53,2.55,2.55,0,0,0-.12.85,2.73,2.73,0,0,0,.1.8,1.22,1.22,0,0,0,.32.53,1.2,1.2,0,0,0,.47.29,2.11,2.11,0,0,0,.64.09,2.2,2.2,0,0,0,.58-.08A1.15,1.15,0,0,0,60,8.87Z"/><path class="cls-1" d="M69.84,4.79,67,10.35H65.83L62.49,4.79h1.28l2.7,4.42s1.32-2.7,2-4.09C68.66,4.69,69.84,4.79,69.84,4.79Z"/><path class="cls-1" d="M72.74,10.34h-1V2.6a.92.92,0,0,1,1,.74A35.89,35.89,0,0,1,72.74,10.34Z"/><path class="cls-1" d="M84.06,5.81H84a3,3,0,0,0-.51-.07,4.85,4.85,0,0,0-.58,0,2.84,2.84,0,0,0-1,.2,4.06,4.06,0,0,0-.91.45l-.07,4H79.7a48.84,48.84,0,0,1,0-5.57c.28-.33,1.22.83,1.22.83A6,6,0,0,1,82.11,5a3.22,3.22,0,0,1,1.1-.19h.44l.41,0Z"/><path class="cls-1" d="M70.24,4.68A.26.26,0,0,1,70,4.42V3.74a.26.26,0,0,1,.26-.26h.52a.26.26,0,0,1,.26.26v.68a.26.26,0,0,1-.26.26Z"/><path class="cls-1" d="M25.34,8c-3.22,0-4,0-4,0A1.22,1.22,0,0,0,22,9a3.41,3.41,0,0,0,1.71.35A4.52,4.52,0,0,0,25,9.12c.45-.13,1.31-.44,1.31-.44v1.44a10.09,10.09,0,0,1-1.44.36,9.73,9.73,0,0,1-1.49.11,5.83,5.83,0,0,1-3.24-.76,2.45,2.45,0,0,1-1.13-2.16,2.61,2.61,0,0,1,1.07-2.19A4.71,4.71,0,0,1,23,4.67a4.07,4.07,0,0,1,2.58.69,2.23,2.23,0,0,1,.76,1.94S26.53,8,25.34,8Zm-1.1-1.09a1.08,1.08,0,0,0-.35-.84,1,1,0,0,0-.81-.29A2,2,0,0,0,22,6.06a1.06,1.06,0,0,0-.47.86Z"/><path class="cls-2" d="M41.87,10.45a8,8,0,0,1-1.68-.17,4.16,4.16,0,0,1-1.32-.54A2.53,2.53,0,0,1,37.7,7.53,2.75,2.75,0,0,1,38,6.18a2.75,2.75,0,0,1,.92-.94,4.09,4.09,0,0,1,1.32-.52,7.06,7.06,0,0,1,1.54-.16h2.05v1.3h-2a1.84,1.84,0,0,0-1.39.44A1.6,1.6,0,0,0,40,7.53a1.49,1.49,0,0,0,.49,1.22,2.12,2.12,0,0,0,1.41.42,3.61,3.61,0,0,0,.77-.07,2.71,2.71,0,0,0,.57-.19,2.56,2.56,0,0,0,.37-.2l.08-.06V10.2c-.19.05-.38.1-.57.13A6.33,6.33,0,0,1,41.87,10.45Z"/><path class="cls-1" d="M70.05,10.34V4.81a1,1,0,0,1,1,.76,25.91,25.91,0,0,1,.19,4.77Z"/><path class="cls-1" d="M29.91,10.5a4.1,4.1,0,0,1-2.31-.42A1.62,1.62,0,0,1,27,8.64V3.21a1.37,1.37,0,0,1,2,1.3c0,.16.26,3.69.26,3.69a4.46,4.46,0,0,0,.14.71.59.59,0,0,0,.3.28,1.12,1.12,0,0,0,.29.07Z"/><path class="cls-2" d="M.51,9.17a6.4,6.4,0,0,1,4,.07A4.06,4.06,0,0,0,1.77,8.18C.68,8.11,0,7.68,0,7.17s.34-1,.84-1c1.54,0,2,2.13,3.16,1.61C3.69,5.69,1.48,5.67,0,5.66a8,8,0,0,1,.18-.85,4.77,4.77,0,0,1,1-.17C1.21,4.4.4,3.69.86,3.12A.68.68,0,0,1,1,3C2.19,2.6,2.34,5.39,3.1,5.25,3.82,4.77,1.39,2.69,2,1.91c.11-.26.85-.34,1.18.36A1.87,1.87,0,0,0,3.47,1,6.18,6.18,0,0,1,5.63.43a3.17,3.17,0,0,0-.06.32c-2,1-1.84,3.58-1.32,5.5.45-.14.27-1.24.24-1.54-.07-.72-.34-1.83.32-2.36a1,1,0,0,1,1.67.87c-.12.63-.28.91-1,1a2.14,2.14,0,0,0-.17,1.19c.69-.32,1.51-1.63,2.38-1C8.11,5.6,6,6.12,5.3,6.29c-.91,1.1,0,2.92,1.2,3.43C5.16,7.56,6,6.79,6,6.79c.43-.07.73.12.87.76,0,0,.19-1.27.93-1.08.46.53-.06,1.87-.3,2.82a2.22,2.22,0,0,0,.43,2.2c.17-.35.26-.64.62-.76C8.24,10.45,7.3,9.36,7.83,9c.54-.17,1.32.65,1.32.65.49,0-.4-1.78-.66-2.46-.49-1.3,0-2.22-1-3.88C6.74,2,5.38,2.17,5.7,1.16c.36-.69.9,0,1.34.14a3.94,3.94,0,0,0,0-.77c1.06.47,1,1.92,1.16,2.79.44-.63.42-1.23,1-1.93a8.44,8.44,0,0,1,.81.64C9.39,3.6,8.08,4.2,8.9,6.37c.28-1.09.21-2.56,1.72-2.42,1,1.88-1.6,2.53-1.19,3.22l.68,2.35c1.33-1.17,1.3-3.39,1-5.34l.35-.09c2.47,6-3.6,9.42-6.2,8.52l-.57-.2,1.14-.29a7.5,7.5,0,0,0,1-.3c-.37-1.05-1.5-.45-2.19-.18A7.31,7.31,0,0,1,3.6,12a7,7,0,0,1-1.22-.69,2.57,2.57,0,0,1,1.75-.66c.42,0,.81.1,1.13-.09.06-.35-1.84-1.7-3.69,0A3.58,3.58,0,0,1,.51,9.17Z"/></svg>