<svg id="Layer_1" data-name="Layer 1" xmlns="http://www.w3.org/2000/svg" viewBox="0 0 102.06 13.19"><defs><style>.cls-1,.cls-2{fill:#fff;}.cls-1{fill-rule:evenodd;}</style></defs><title>logoMobileNavBar2</title><path class="cls-1" d="M94.13,12.43c-.77.22-1-1.23-2.42-.51a6.72,6.72,0,0,1-3.27.8,4,4,0,0,1-2.5-.78,2.4,2.4,0,0,1-1-2,2.62,2.62,0,0,1,.58-1.68,5.79,5.79,0,0,1,4.18-1.51c2.93,0,2.63-.87,2.48-1.09a1.49,1.49,0,0,0-.63-.52,3,3,0,0,0-.94-.24,10.65,10.65,0,0,0-1.15-.06A9.74,9.74,0,0,0,87.82,5,15.4,15.4,0,0,0,86,5.44h-.09V4c.36-.08.88-.16,1.55-.26a15.32,15.32,0,0,1,2-.14,11.69,11.69,0,0,1,2,.16,4.51,4.51,0,0,1,1.49.51,2.47,2.47,0,0,1,.94.93,2.78,2.78,0,0,1,.33,1.41Zm-1.76-2.1s.29-1.46-.15-2.08C92,7.9,91.15,8,90.38,8a12.36,12.36,0,0,0-1.8.23,3.09,3.09,0,0,0-1.28.56,1.22,1.22,0,0,0-.49,1A1.28,1.28,0,0,0,87.38,11a3.15,3.15,0,0,0,1.73.37,5,5,0,0,0,1.77-.3A8.23,8.23,0,0,0,92.37,10.33Z"/><path class="cls-1" d="M26.86,8.43c-5,0-6.28,0-6.28,0a1.93,1.93,0,0,0,1,1.58,5.33,5.33,0,0,0,2.67.54,7.17,7.17,0,0,0,2.17-.32c.7-.21,2.05-.68,2.05-.68v2.25a14.49,14.49,0,0,1-2.26.55,13.91,13.91,0,0,1-2.34.18,9,9,0,0,1-5.07-1.19A3.83,3.83,0,0,1,17,7.91a4.1,4.1,0,0,1,1.67-3.43,7.44,7.44,0,0,1,4.58-1.27,6.32,6.32,0,0,1,4,1.09,3.48,3.48,0,0,1,1.18,3S28.73,8.43,26.86,8.43ZM25.14,6.74a1.72,1.72,0,0,0-.54-1.33A1.55,1.55,0,0,0,23.32,5a3.08,3.08,0,0,0-1.68.42,1.67,1.67,0,0,0-.73,1.35Z"/><path class="cls-1" d="M47.34,12.33c-.38.07-.79.13-1.21.18s-.94.07-1.56.07a5.62,5.62,0,0,1-3.07-.67,2.53,2.53,0,0,1-1-2.27V1.14a5.55,5.55,0,0,1,2.88,2.2c.73,1.21,4,.41,4,.41l0,2.25H44V8.65c0,.31,0,.58,0,.81a1.35,1.35,0,0,0,.16.61,1,1,0,0,0,.48.44,2.64,2.64,0,0,0,1,.16,3.84,3.84,0,0,0,.71-.1A3.66,3.66,0,0,0,47,10.4h.3Z"/><path class="cls-1" d="M56.35,6.32H56a4,4,0,0,0-.73-.09l-.83,0a8.79,8.79,0,0,0-1.33.08,9.64,9.64,0,0,0-1.25.26V12.4H48.37V3.65A3.31,3.31,0,0,1,51.9,4.93a7.74,7.74,0,0,1,2-1,5.66,5.66,0,0,1,1.59-.26h.42l.41,0Z"/><path class="cls-1" d="M68.62,8A4.12,4.12,0,0,1,67,11.44a7.1,7.1,0,0,1-4.44,1.24,7.12,7.12,0,0,1-4.45-1.24A4.12,4.12,0,0,1,56.57,8a4.11,4.11,0,0,1,1.59-3.42A7.1,7.1,0,0,1,62.6,3.37,7,7,0,0,1,67,4.62,4.09,4.09,0,0,1,68.62,8Zm-4.34,2.13a2,2,0,0,0,.51-.8A3.85,3.85,0,0,0,65,8.05a4,4,0,0,0-.18-1.3,2.1,2.1,0,0,0-.49-.83,1.72,1.72,0,0,0-.75-.46,3.63,3.63,0,0,0-.95-.13,3.68,3.68,0,0,0-.92.11,1.83,1.83,0,0,0-.75.44,2.19,2.19,0,0,0-.52.83,4.26,4.26,0,0,0-.18,1.34,4.19,4.19,0,0,0,.16,1.24,2.14,2.14,0,0,0,.49.85,1.89,1.89,0,0,0,.75.44,3.35,3.35,0,0,0,1,.14,3.39,3.39,0,0,0,.91-.12A1.78,1.78,0,0,0,64.28,10.16Z"/><path class="cls-1" d="M79.68,3.76l-4.43,8.71H73.39L68.16,3.76h2l4.23,6.94s2.07-4.23,3.11-6.41C77.82,3.61,79.68,3.76,79.68,3.76Z"/><path class="cls-1" d="M84.22,12.46H82.6V.34A1.44,1.44,0,0,1,84.13,1.5C84.83,5.53,84.22,12.46,84.22,12.46Z"/><path class="cls-1" d="M102,5.36h-.1a7.67,7.67,0,0,0-.8-.11c-.26,0-.56,0-.91,0a4.64,4.64,0,0,0-1.65.31,7.33,7.33,0,0,0-1.43.71L97,12.47H95.12s-.39-8.35-.07-8.71C95.49,3.24,97,5.05,97,5.05a9.33,9.33,0,0,1,1.93-1,5.11,5.11,0,0,1,1.72-.3,5.51,5.51,0,0,1,.69,0l.65.07Z"/><path class="cls-1" d="M80.3,3.59a.41.41,0,0,1-.41-.4V2.12a.41.41,0,0,1,.41-.4h.81a.4.4,0,0,1,.41.4V3.19a.4.4,0,0,1-.41.4Z"/><path class="cls-1" d="M10,8.8c-5,0-6.28-.05-6.28-.05a1.93,1.93,0,0,0,1,1.58,5.35,5.35,0,0,0,2.68.54,7.15,7.15,0,0,0,2.16-.32c.7-.21,2.05-.68,2.05-.68v2.25a16,16,0,0,1-2.25.56A15.3,15.3,0,0,1,7,12.85a9.1,9.1,0,0,1-5.08-1.19A3.81,3.81,0,0,1,.12,8.29,4.09,4.09,0,0,1,1.78,4.85,7.49,7.49,0,0,1,6.37,3.58a6.29,6.29,0,0,1,4,1.09,3.46,3.46,0,0,1,1.19,3S11.83,8.8,10,8.8ZM8.25,7.11A1.73,1.73,0,0,0,7.7,5.78a1.57,1.57,0,0,0-1.28-.44,3,3,0,0,0-1.67.42A1.68,1.68,0,0,0,4,7.11Z"/><path class="cls-2" d="M35.86,12.64a12,12,0,0,1-2.64-.27,6.51,6.51,0,0,1-2.06-.85,4,4,0,0,1-1.36-1.43,4.12,4.12,0,0,1-.48-2A4.17,4.17,0,0,1,29.83,6a4.42,4.42,0,0,1,1.44-1.48,7,7,0,0,1,2.06-.81,11.35,11.35,0,0,1,2.42-.25H39v2H35.9a2.93,2.93,0,0,0-2.18.69A2.53,2.53,0,0,0,33,8.06,2.4,2.4,0,0,0,33.74,10a3.36,3.36,0,0,0,2.22.65,5.42,5.42,0,0,0,1.19-.11,4.89,4.89,0,0,0,.89-.29,3.26,3.26,0,0,0,.59-.33l.12-.08v2.42c-.29.08-.59.15-.89.21A9.5,9.5,0,0,1,35.86,12.64Z"/><path class="cls-1" d="M80,12.46,80,3.8A1.5,1.5,0,0,1,81.54,5a40.08,40.08,0,0,1,.28,7.47Z"/><path class="cls-1" d="M17.12,12.72c-.17,0-2.4.2-3.62-.66a2.58,2.58,0,0,1-1-2.27V1.29a2.15,2.15,0,0,1,3.08,2c0,.25.4,5.78.4,5.78a10.83,10.83,0,0,0,.21,1.11,1.09,1.09,0,0,0,.48.44,2.44,2.44,0,0,0,.45.12Z"/></svg>