<svg id="Layer_1" data-name="Layer 1" xmlns="http://www.w3.org/2000/svg" viewBox="0 0 112 62"><defs><style>.cls-1,.cls-2{fill:#fff;}.cls-1{fill-rule:evenodd;}</style></defs><title>NavBar</title><path class="cls-1" d="M100.82,51.5c-.8.23-1-1.28-2.52-.53a7,7,0,0,1-3.39.83A4.19,4.19,0,0,1,92.3,51a2.47,2.47,0,0,1-1.07-2.07,2.66,2.66,0,0,1,.61-1.74,6,6,0,0,1,4.34-1.57c3,0,2.73-.91,2.58-1.14a1.52,1.52,0,0,0-.65-.54,3.34,3.34,0,0,0-1-.25,11.42,11.42,0,0,0-1.19-.06,9.68,9.68,0,0,0-1.69.16,15,15,0,0,0-1.91.45h-.1V42.68c.37-.08.91-.17,1.62-.26A14.8,14.8,0,0,1,96,42.27a11.69,11.69,0,0,1,2.09.16,4.59,4.59,0,0,1,1.54.54,2.58,2.58,0,0,1,1,1,2.91,2.91,0,0,1,.34,1.47ZM99,49.32a3.71,3.71,0,0,0-.16-2.17c-.26-.36-1.11-.29-1.91-.23a13.15,13.15,0,0,0-1.87.23,3.38,3.38,0,0,0-1.34.59,1.26,1.26,0,0,0-.5,1.07A1.31,1.31,0,0,0,93.8,50a3.29,3.29,0,0,0,1.8.39,5.15,5.15,0,0,0,1.84-.31A8.9,8.9,0,0,0,99,49.32Z"/><path class="cls-1" d="M30.86,47.34c-5.24,0-6.53-.05-6.53-.05a2,2,0,0,0,1,1.64,5.47,5.47,0,0,0,2.78.57,7.39,7.39,0,0,0,2.25-.34c.73-.22,2.13-.71,2.13-.71v2.34a15.94,15.94,0,0,1-2.34.58,15.26,15.26,0,0,1-2.44.18,9.5,9.5,0,0,1-5.28-1.23,4,4,0,0,1-1.83-3.52,4.23,4.23,0,0,1,1.73-3.56,7.79,7.79,0,0,1,4.77-1.33A6.64,6.64,0,0,1,31.32,43a3.65,3.65,0,0,1,1.23,3.16S32.81,47.34,30.86,47.34Zm-1.78-1.76a1.8,1.8,0,0,0-.57-1.38,1.61,1.61,0,0,0-1.33-.46,3.16,3.16,0,0,0-1.74.44,1.73,1.73,0,0,0-.77,1.4Z"/><path class="cls-1" d="M52.16,51.39a11.89,11.89,0,0,1-1.26.19,14.85,14.85,0,0,1-1.62.07A5.88,5.88,0,0,1,46.09,51a2.62,2.62,0,0,1-1-2.36V39.77a5.75,5.75,0,0,1,3,2.28c.75,1.26,4.15.42,4.15.42l-.05,2.35H48.72v2.75c0,.32,0,.6,0,.84a1.48,1.48,0,0,0,.16.64,1.06,1.06,0,0,0,.5.45,2.69,2.69,0,0,0,1.06.17,4.31,4.31,0,0,0,.75-.1,4.62,4.62,0,0,0,.65-.18h.31Z"/><path class="cls-1" d="M61.53,45.15H61.2a4,4,0,0,0-.75-.1l-.87,0a11.17,11.17,0,0,0-1.38.08,11,11,0,0,0-1.3.28v6.09H53.24l0-9.1c2.72-.41,3.68,1.34,3.68,1.34A8,8,0,0,1,59,42.61a5.79,5.79,0,0,1,1.66-.27h.43l.43,0Z"/><path class="cls-1" d="M74.29,46.93a4.27,4.27,0,0,1-1.65,3.54A7.29,7.29,0,0,1,68,51.76a7.35,7.35,0,0,1-4.63-1.29,4.65,4.65,0,0,1,0-7.1A7.38,7.38,0,0,1,68,42.08a7.28,7.28,0,0,1,4.62,1.3A4.27,4.27,0,0,1,74.29,46.93Zm-4.51,2.21a2.15,2.15,0,0,0,.53-.84,4.1,4.1,0,0,0,.18-1.36,4.3,4.3,0,0,0-.18-1.34,2.05,2.05,0,0,0-.51-.87,1.82,1.82,0,0,0-.79-.47,3.41,3.41,0,0,0-1-.14,3.87,3.87,0,0,0-1,.11,2.09,2.09,0,0,0-.79.46,2.31,2.31,0,0,0-.54.87,4.14,4.14,0,0,0-.19,1.38,4.55,4.55,0,0,0,.17,1.3,2.18,2.18,0,0,0,.51.87,2,2,0,0,0,.78.47,3.64,3.64,0,0,0,1,.14,3.19,3.19,0,0,0,.94-.13A1.78,1.78,0,0,0,69.78,49.14Z"/><path class="cls-1" d="M85.79,42.49l-4.61,9.06H79.26l-5.45-9.06h2.08l4.4,7.21s2.15-4.4,3.23-6.67C83.86,42.33,85.79,42.49,85.79,42.49Z"/><path class="cls-1" d="M90.51,51.53l-1.68,0V38.93a1.5,1.5,0,0,1,1.59,1.2C91.14,44.33,90.51,51.53,90.51,51.53Z"/><path class="cls-1" d="M109,44.15h-.1A8.41,8.41,0,0,0,108,44a8.57,8.57,0,0,0-.94,0,4.8,4.8,0,0,0-1.72.31,7.36,7.36,0,0,0-1.48.75l-.11,6.49h-1.91s-.41-8.69-.08-9.07c.47-.54,2,1.35,2,1.35a9.85,9.85,0,0,1,2-1,5.27,5.27,0,0,1,1.79-.31l.72,0,.67.08Z"/><path class="cls-1" d="M86.44,42.31a.42.42,0,0,1-.43-.42V40.78a.42.42,0,0,1,.43-.42h.84a.42.42,0,0,1,.43.42v1.11a.42.42,0,0,1-.43.42Z"/><path class="cls-1" d="M13.29,47.73c-5.24,0-6.53,0-6.53,0a2,2,0,0,0,1,1.64,5.59,5.59,0,0,0,2.78.56,7.76,7.76,0,0,0,2.25-.33c.73-.22,2.13-.71,2.13-.71v2.34a15.94,15.94,0,0,1-2.34.58,15.32,15.32,0,0,1-2.44.17A9.5,9.5,0,0,1,4.88,50.7a4,4,0,0,1-1.83-3.51,4.26,4.26,0,0,1,1.73-3.57A7.72,7.72,0,0,1,9.55,42.3a6.64,6.64,0,0,1,4.2,1.13A3.62,3.62,0,0,1,15,46.59S15.23,47.73,13.29,47.73ZM11.51,46a1.8,1.8,0,0,0-.57-1.38,1.61,1.61,0,0,0-1.33-.46,3.16,3.16,0,0,0-1.74.43A1.75,1.75,0,0,0,7.1,46Z"/><path class="cls-2" d="M40.22,51.72a12.25,12.25,0,0,1-2.74-.29,6.6,6.6,0,0,1-2.15-.87,4.27,4.27,0,0,1-1.41-1.49,4.33,4.33,0,0,1-.5-2.11,4.14,4.14,0,0,1,2-3.73,6.7,6.7,0,0,1,2.14-.85,12.24,12.24,0,0,1,2.52-.26h3.33v2.12H40.26A3,3,0,0,0,38,45a2.63,2.63,0,0,0-.79,2A2.45,2.45,0,0,0,38,49a3.45,3.45,0,0,0,2.3.68,6,6,0,0,0,1.25-.12,4,4,0,0,0,.92-.3,4.28,4.28,0,0,0,.61-.34l.13-.08V51.3c-.31.09-.61.16-.93.22A10.27,10.27,0,0,1,40.22,51.72Z"/><path class="cls-1" d="M86.13,51.53l0-9a1.57,1.57,0,0,1,1.62,1.24,41.57,41.57,0,0,1,.3,7.77Z"/><path class="cls-1" d="M20.74,51.8c-.19,0-2.5.21-3.77-.68a2.68,2.68,0,0,1-1-2.36V39.92s3-1.12,3.2,2.12c0,.26.42,6,.42,6a9.31,9.31,0,0,0,.22,1.15,1,1,0,0,0,.5.46,1.78,1.78,0,0,0,.47.12Z"/><path class="cls-1" d="M58.19,56.6l-1,4,.5-.06a11.12,11.12,0,0,1,.79-2.34c.12-.25.68-1.39,1.1-1.39.12,0,.22.08.22.3,0,.48-.33,1.31-.83,1.31a1,1,0,0,1-.35-.07l-.05.15a1.07,1.07,0,0,0,.34,0A1.56,1.56,0,0,0,60.35,57a.51.51,0,0,0-.53-.55A1.11,1.11,0,0,0,59,57a5.83,5.83,0,0,0-.75,1.36l.56-1.89Z"/><path class="cls-1" d="M62.59,56.48l-.34,0A1.67,1.67,0,0,0,60.61,58a.5.5,0,0,0,.55.53,1.26,1.26,0,0,0,1-.68l.35-.6a3.73,3.73,0,0,0-.25.95.33.33,0,0,0,.38.34,1.51,1.51,0,0,0,.9-.5l0-.07c-.29.23-.48.36-.62.36s-.12,0-.12-.13a.82.82,0,0,1,.08-.3L63,57.5c.08-.24.28-.84.35-1h-.58a11,11,0,0,1-.52,1c-.13.23-.44.75-.75.75s-.28-.27-.28-.37c0-.47.44-1.3,1-1.3a.76.76,0,0,1,.33.08Z"/><path class="cls-1" d="M64.09,56.6l-.51,1.89.51,0c.42-1,1-1.73,1.22-1.73s.1.13.1.14a2.78,2.78,0,0,1-.11.46l.47-.08a1.62,1.62,0,0,0,.07-.44.3.3,0,0,0-.31-.34c-.34,0-.69.36-1.23,1.25l.38-1.23Z"/><path class="cls-1" d="M67.55,58a1.42,1.42,0,0,1-.76.3.33.33,0,0,1-.37-.36c0-.51.38-1.31.88-1.31a.57.57,0,0,1,.34.15,1.08,1.08,0,0,0,.19.14s.16-.21.16-.28-.32-.15-.55-.15A1.67,1.67,0,0,0,65.83,58a.52.52,0,0,0,.6.54,2.12,2.12,0,0,0,1.2-.47Z"/><path class="cls-1" d="M69.84,57.94a1.51,1.51,0,0,1-.89.38c-.23,0-.44-.09-.43-.38.48-.11,1.64-.4,1.64-1,0-.17-.14-.44-.61-.44A1.54,1.54,0,0,0,68,57.88c0,.5.39.66.75.66a1.91,1.91,0,0,0,1.14-.5Zm-1.31-.13c.06-.4.47-1.21,1-1.21a.24.24,0,0,1,.27.23C69.77,56.92,69.76,57.45,68.53,57.81Z"/><path class="cls-1" d="M71.82,55.38a.36.36,0,0,0-.36-.36.36.36,0,0,0-.36.36.37.37,0,0,0,.37.36A.36.36,0,0,0,71.82,55.38Zm-.92,1.14a6.37,6.37,0,0,0-.4,1.59.36.36,0,0,0,.36.4c.16,0,.39,0,.88-.47v-.11c-.47.35-.5.37-.61.37a.12.12,0,0,1-.12-.13,1.3,1.3,0,0,1,.07-.35l.41-1.37Z"/><path class="cls-1" d="M72.46,56.6l-.52,1.89.52,0c.42-1,1-1.73,1.22-1.73s.1.13.1.14a2.78,2.78,0,0,1-.11.46l.46-.08a1.31,1.31,0,0,0,.07-.44c0-.22-.12-.34-.3-.34-.35,0-.7.36-1.23,1.25l.38-1.23Z"/><path class="cls-1" d="M75,58.52a1.34,1.34,0,0,0,1.37-1.24.82.82,0,0,0-.88-.81,1.39,1.39,0,0,0-1.35,1.28A.79.79,0,0,0,75,58.52Zm.83-1.58c0,.42-.28,1.46-.81,1.46a.33.33,0,0,1-.35-.36c0-.29.29-1.45.87-1.45C75.72,56.59,75.87,56.65,75.87,56.94Z"/><path class="cls-1" d="M77.06,57.58c.31-.34.55-.59.76-.8a3.46,3.46,0,0,1,.11.82c0,.24,0,.78-.37.78,0,0-.11,0-.29-.18a.47.47,0,0,0-.35-.2.19.19,0,0,0-.19.19c0,.15.15.35.6.35.69,0,1.16-.38,1.16-.92a1.28,1.28,0,0,0-.54-.95c.14-.07.38-.23.38-.42a.17.17,0,0,0-.18-.17c-.19,0-.38.24-.35.56-.27.26-.33.33-.81.86Z"/><path class="cls-1" d="M82.64,56.53a3.52,3.52,0,0,0-.49-.05A1.66,1.66,0,0,0,80.52,58a.54.54,0,0,0,.58.57c.55,0,.92-.46,1.28-1.09a2.29,2.29,0,0,0-.19.77.32.32,0,0,0,.36.33,1.41,1.41,0,0,0,.89-.48l0-.1a1.14,1.14,0,0,1-.61.39.14.14,0,0,1-.13-.15,1.07,1.07,0,0,1,0-.21l1.66-5.41-.65.21Zm-.07.21c-.41,1.08-.91,1.54-1.19,1.54s-.28-.15-.28-.36c0-.58.53-1.32,1-1.32A.76.76,0,0,1,82.57,56.74Z"/><path class="cls-1" d="M84.41,58.52a1.33,1.33,0,0,0,1.36-1.24.82.82,0,0,0-.87-.81,1.39,1.39,0,0,0-1.36,1.28A.79.79,0,0,0,84.41,58.52Zm.83-1.58c0,.42-.28,1.46-.81,1.46a.33.33,0,0,1-.35-.36c0-.29.29-1.45.86-1.45C85.09,56.59,85.24,56.65,85.24,56.94Z"/><path class="cls-1" d="M89.69,56.48l-.34,0A1.67,1.67,0,0,0,87.71,58a.5.5,0,0,0,.55.53,1.26,1.26,0,0,0,1-.68l.35-.6a3.73,3.73,0,0,0-.25.95.33.33,0,0,0,.38.34,1.51,1.51,0,0,0,.9-.5l0-.07c-.29.23-.48.36-.62.36s-.12,0-.12-.13a1.11,1.11,0,0,1,.08-.3l.13-.39c.08-.24.28-.84.35-1h-.58a11,11,0,0,1-.52,1c-.13.23-.44.75-.74.75s-.29-.27-.29-.37c0-.47.44-1.3,1-1.3a.76.76,0,0,1,.33.08Z"/><path class="cls-1" d="M91.24,56.61l-.53,1.88.53,0A5.24,5.24,0,0,1,92.13,57c0-.06.2-.25.35-.25s.13.17.13.18a6.37,6.37,0,0,1-.34,1.27l-.11.33h.52a4.1,4.1,0,0,1,.59-1.23c.13-.2.37-.55.59-.55a.15.15,0,0,1,.14.17,1.74,1.74,0,0,1-.11.42l-.19.51a1.08,1.08,0,0,0-.08.38c0,.09,0,.37.39.37A1.78,1.78,0,0,0,95,58L94.91,58a1.54,1.54,0,0,1-.63.39.11.11,0,0,1-.12-.11,1.23,1.23,0,0,1,.08-.33l.16-.43a2,2,0,0,0,.15-.61.41.41,0,0,0-.45-.39c-.49,0-.85.56-1.15,1a2,2,0,0,0,.15-.62s0-.42-.36-.42c-.6,0-1,.78-1.28,1.25l.38-1.23Z"/><path class="cls-1" d="M96.76,52.72,95.3,57.55a1.43,1.43,0,0,0-.08.43c0,.35.26.56.69.56A1.71,1.71,0,0,0,97.55,57a.52.52,0,0,0-.56-.55,1.4,1.4,0,0,0-1,.58l1.45-4.51ZM97,57.07c0,.26-.35,1.34-1,1.34a.31.31,0,0,1-.32-.36c0-.56.54-1.33,1-1.33A.31.31,0,0,1,97,57.07Z"/><path class="cls-1" d="M99.24,55.38a.36.36,0,1,0-.71,0,.36.36,0,0,0,.36.36A.36.36,0,0,0,99.24,55.38Zm-.92,1.14a6.84,6.84,0,0,0-.4,1.59.36.36,0,0,0,.37.4c.16,0,.38,0,.87-.47v-.11c-.47.35-.49.37-.6.37a.12.12,0,0,1-.13-.13,1.89,1.89,0,0,1,.07-.35l.42-1.37Z"/><path class="cls-1" d="M101.28,57.94a1.54,1.54,0,0,1-.89.38c-.23,0-.44-.09-.43-.38.48-.11,1.63-.4,1.63-1,0-.17-.13-.44-.6-.44a1.54,1.54,0,0,0-1.56,1.41.66.66,0,0,0,.75.66,1.93,1.93,0,0,0,1.15-.5ZM100,57.81c.06-.4.47-1.21,1-1.21a.24.24,0,0,1,.27.23C101.2,56.92,101.19,57.45,100,57.81Z"/><path class="cls-1" d="M102.25,56.59l-.51,1.9.53,0c.12-.28.76-1.75,1.25-1.75a.15.15,0,0,1,.15.16,1.65,1.65,0,0,1-.07.32l-.18.54a1.91,1.91,0,0,0-.08.44.35.35,0,0,0,.39.36,1.45,1.45,0,0,0,.92-.52l-.07-.06c-.26.23-.44.39-.59.39a.12.12,0,0,1-.13-.14,1.38,1.38,0,0,1,.06-.26l.18-.55a1.73,1.73,0,0,0,.12-.51.4.4,0,0,0-.43-.41c-.45,0-.86.4-1.34,1.35l.42-1.34Z"/><path class="cls-1" d="M106.21,58a1.6,1.6,0,0,1-.62.39.12.12,0,0,1-.11-.13c0-.17.4-1.36.48-1.62l.13-.42h.58l0-.12h-.58l.49-1.6-.6.13-.46,1.47h-.27l0,.12h.28c-.07.25-.45,1.46-.48,1.57a1.64,1.64,0,0,0-.07.42.36.36,0,0,0,.37.38,1.48,1.48,0,0,0,.92-.53Z"/><path class="cls-1" d="M108.47,57.94a1.51,1.51,0,0,1-.89.38c-.23,0-.44-.09-.43-.38.48-.11,1.63-.4,1.63-1,0-.17-.13-.44-.6-.44a1.54,1.54,0,0,0-1.56,1.41.66.66,0,0,0,.75.66,1.93,1.93,0,0,0,1.15-.5Zm-1.31-.13c.06-.4.47-1.21,1-1.21a.24.24,0,0,1,.27.23C108.39,56.92,108.39,57.45,107.16,57.81Z"/><path class="cls-2" d="M44.39,24.51c5-1.09,6.11-1,10.63.19a10.79,10.79,0,0,0-7.28-2.79c-2.9-.19-4.82-1.33-4.77-2.66.06-1.69.9-2.54,2.23-2.54,4,0,5.38,5.62,8.33,4.25C52.81,15.32,47,15.27,43,15.25A21.93,21.93,0,0,1,43.47,13a13.78,13.78,0,0,1,2.63-.45c.16-.63-2-2.49-.77-4a1.44,1.44,0,0,1,.36-.27c3.14-1.08,3.54,6.28,5.55,5.92,1.92-1.28-4.51-6.76-2.91-8.83.3-.68,2.25-.89,3.13.94a4.83,4.83,0,0,0,.75-3.45,16.45,16.45,0,0,1,5.72-1.4s-.12.56-.17.85c-5.37,2.53-4.86,9.45-3.47,14.53,1.18-.37.71-3.28.63-4.07-.2-1.9-.9-4.84.85-6.24a2.69,2.69,0,0,1,4.41,2.3c-.33,1.66-.76,2.41-2.5,2.63a5.79,5.79,0,0,0-.47,3.15c1.83-.86,4-4.3,6.28-2.53,1,3-4.53,4.4-6.44,4.87-2.4,2.89.05,7.69,3.17,9.05-3.55-5.7-1.43-7.76-1.43-7.76,1.14-.18,1.94.32,2.3,2,0,0,.5-3.35,2.47-2.86,1.2,1.42-.17,5-.81,7.47a5.87,5.87,0,0,0,1.14,5.8c.46-.92.69-1.7,1.63-2C64.81,27.9,62.34,25,63.74,24c1.42-.44,3.49,1.72,3.49,1.72,1.28.09-1.06-4.7-1.74-6.49-1.31-3.44,0-5.86-2.62-10.24-2-3.36-5.59-2.92-4.76-5.58,1-1.84,2.38,0,3.54.36a9.18,9.18,0,0,0,.12-2C64.58,3,64.48,6.78,64.85,9.08,66,7.41,66,5.81,67.47,4a22.9,22.9,0,0,1,2.14,1.68c-1.75,4.15-5.21,5.74-3,11.48.73-2.9.55-6.76,4.55-6.42,2.7,5-4.24,6.7-3.16,8.53l1.81,6.19c3.49-3.09,3.42-9,2.75-14.09l.92-.25C80,27.05,63.91,36,57.06,33.62l-1.52-.53,3-.77a22.47,22.47,0,0,0,2.75-.8c-1-2.76-4-1.2-5.79-.48a18.75,18.75,0,0,1-3,1,20.87,20.87,0,0,1-3.22-1.83A6.76,6.76,0,0,1,54,28.43c1.1-.08,2.16.27,3-.25.16-.9-4.85-4.46-9.74.06A9.55,9.55,0,0,1,44.39,24.51Z"/></svg>