<svg width="92" height="92" xmlns="http://www.w3.org/2000/svg"><g transform="translate(3 3)" fill="none" fill-rule="evenodd"><circle stroke="#262525" stroke-width="4.62" cx="43" cy="43" r="43"/><path d="M63.721 55.701l-4.605-4.605c-1.35-1.35-3.395-1.76-5.14-.982-.878.392-1.806.942-2.59 1.725-5.263 5.263-22.488-11.962-17.225-17.225.783-.784 1.333-1.712 1.725-2.59.778-1.745.369-3.79-.982-5.14l-4.605-4.605c-2.226-2.226-5.951-1.634-7.418 1.152-1.534 2.914-2.69 7.04-1.417 12.093C24.18 46.311 39.689 61.82 50.476 64.536c5.053 1.272 9.178.117 12.093-1.417 2.786-1.467 3.378-5.192 1.152-7.418z" fill="#262525" fill-rule="nonzero"/></g></svg>