<svg width="92" height="92" xmlns="http://www.w3.org/2000/svg"><g transform="translate(3 3)" fill="none" fill-rule="evenodd"><circle stroke="#262525" stroke-width="4.62" cx="43" cy="43" r="43"/><path d="M43.387 17.82c-14.12 0-25.567 11.447-25.567 25.567 0 14.121 11.447 25.568 25.567 25.568 14.121 0 25.568-11.447 25.568-25.568A25.568 25.568 0 0043.387 17.82zm12.94 27.892h-12.72a2.54 2.54 0 01-2.543-2.534V27.447a2.613 2.613 0 012.295-2.642 2.55 2.55 0 011.962.649 2.53 2.53 0 01.83 1.885v12.037c0 .7.57 1.267 1.272 1.267h8.796a2.617 2.617 0 012.652 2.287 2.528 2.528 0 01-.652 1.954 2.55 2.55 0 01-1.892.828z" fill="#262525" fill-rule="nonzero"/></g></svg>