<?xml version="1.0" encoding="UTF-8"?>
<svg width="211px" height="212px" viewBox="0 0 211 212" version="1.1" xmlns="http://www.w3.org/2000/svg" xmlns:xlink="http://www.w3.org/1999/xlink">
    <!-- Generator: Sketch 60.1 (88133) - https://sketch.com -->
    <title>Group 2</title>
    <desc>Created with Sketch.</desc>
    <defs>
        <polygon id="path-1" points="0.000156164384 0.32055159 113.998048 0.32055159 113.998048 26.5628652 0.000156164384 26.5628652"></polygon>
    </defs>
    <g id="HFP---Validated" stroke="none" stroke-width="1" fill="none" fill-rule="evenodd">
        <g id="Proposta-Final-Copy-2" transform="translate(-165.000000, -2537.000000)">
            <g id="Group-2" transform="translate(169.000000, 2541.000000)">
                <ellipse id="Oval-Copy-6" stroke="#262525" stroke-width="7.2" cx="101.50974" cy="102.131783" rx="101.50974" ry="102.131783"></ellipse>
                <g id="Group-17" transform="translate(44.016949, 43.000000)">
                    <g id="Group-10" transform="translate(0.983051, 0.000000)">
                        <polygon id="Fill-1" fill="#262525" points="22.2818783 0 5.94782609 37.5971617 107.06087 37.5971617 90.7264257 0"></polygon>
                        <g id="Group-9" transform="translate(0.000000, 40.565359)">
                            <path d="M65.7680445,52.8049842 L48.2300034,52.8049842 C47.4113116,52.8049842 46.7686952,53.4463989 46.7686952,54.2626741 L46.7686952,73.2153697 L67.2297432,73.2153697 L67.2297432,54.2626741 C67.2297432,53.4463989 66.5867363,52.8049842 65.7680445,52.8049842" id="Fill-2" fill="#262525"></path>
                            <path d="M108.152034,28.6621257 C106.778178,29.1578883 105.31687,29.4787904 103.767719,29.4787904 C98.6521644,29.4787904 94.2385685,26.5046044 92.0753014,22.2471995 C89.9124247,26.5334233 85.4988288,29.4787904 80.383274,29.4787904 C75.2677192,29.4787904 70.8545137,26.5046044 68.6912466,22.2471995 C66.5283699,26.5334233 62.1143836,29.4787904 56.9992192,29.4787904 C51.8836644,29.4787904 47.4700685,26.5046044 45.3068014,22.2471995 C43.1439247,26.5334233 38.7303288,29.4787904 33.614774,29.4787904 C28.4996096,29.4787904 24.0860137,26.5046044 21.9227466,22.2471995 C19.7598699,26.5334233 15.3458836,29.4787904 10.2307192,29.4787904 C8.68156849,29.4787904 7.21986986,29.1578883 5.8460137,28.6621257 L5.8460137,73.2153307 L43.8454932,73.2153307 L43.8454932,54.2626352 C43.8454932,51.8426284 45.8041849,49.8891759 48.2301986,49.8891759 L65.7678493,49.8891759 C68.1942534,49.8891759 70.1529452,51.8426284 70.1529452,54.2626352 L70.1529452,73.2153307 L108.152034,73.2153307 L108.152034,28.6621257 Z" id="Fill-4" fill="#262525"></path>
                            <g id="Group-8">
                                <mask id="mask-2" fill="white">
                                    <use xlink:href="#path-1"></use>
                                </mask>
                                <g id="Clip-7"></g>
                                <path d="M112.536896,0.32055159 L109.613889,0.32055159 L4.38486164,0.32055159 L1.46146438,0.32055159 C0.643163014,0.32055159 0.000156164384,0.961966327 0.000156164384,1.77863099 L0.000156164384,10.5259391 L0.000156164384,16.3574778 C0.000156164384,21.9849477 4.58904658,26.5628652 10.2304849,26.5628652 C15.8719233,26.5628652 20.4612041,21.9849477 20.4612041,16.3574778 L20.4612041,10.5259391 C20.4612041,9.7092744 21.1046014,9.06824911 21.9225123,9.06824911 C22.7412041,9.06824911 23.3846014,9.7092744 23.3846014,10.5259391 L23.3846014,16.3574778 C23.3846014,21.9849477 27.9731014,26.5628652 33.6149301,26.5628652 C39.2563685,26.5628652 43.8456493,21.9849477 43.8456493,16.3574778 L43.8456493,10.5259391 C43.8456493,9.7092744 44.4886562,9.06824911 45.3069575,9.06824911 C46.1256493,9.06824911 46.7686562,9.7092744 46.7686562,10.5259391 L46.7686562,16.3574778 C46.7686562,21.9849477 51.3575466,26.5628652 56.9989849,26.5628652 C62.6404233,26.5628652 67.2297041,21.9849477 67.2297041,16.3574778 L67.2297041,10.5259391 C67.2297041,9.7092744 67.8731014,9.06824911 68.6910123,9.06824911 C69.5097041,9.06824911 70.152711,9.7092744 70.152711,10.5259391 L70.152711,16.3574778 C70.152711,21.9849477 74.7416014,26.5628652 80.3834301,26.5628652 C86.0248685,26.5628652 90.6141493,21.9849477 90.6141493,16.3574778 L90.6141493,10.5259391 C90.6141493,9.7092744 91.2571562,9.06824911 92.0754575,9.06824911 C92.8941493,9.06824911 93.5371562,9.7092744 93.5371562,10.5259391 L93.5371562,16.3574778 C93.5371562,21.9849477 98.1260466,26.5628652 103.767485,26.5628652 C109.408923,26.5628652 113.998204,21.9849477 113.998204,16.3574778 L113.998204,10.5259391 L113.998204,1.77863099 C113.998204,0.961966327 113.355197,0.32055159 112.536896,0.32055159" id="Fill-6" fill="#262525" mask="url(#mask-2)"></path>
                            </g>
                        </g>
                    </g>
                </g>
            </g>
        </g>
    </g>
</svg>